<?xml version="1.0" encoding="UTF-8"?>
<svg id="Layer_1" data-name="Layer 1" xmlns="http://www.w3.org/2000/svg" viewBox="0 0 1700 1400">
  <defs>
    <style>
      .cls-1 {
        fill: #eb4a3d;
      }

      .cls-1, .cls-2, .cls-3, .cls-4 {
        fill-rule: evenodd;
      }

      .cls-2 {
        fill: #e2a765;
      }

      .cls-3 {
        fill: #66beb7;
      }

      .cls-5 {
        opacity: .75;
      }

      .cls-5, .cls-6 {
        fill: none;
      }

      .cls-4 {
        fill: #8bc8e8;
        stroke: #8bc8e8;
        stroke-miterlimit: 10;
        stroke-width: 12.4px;
      }

      .cls-6 {
        opacity: .1;
      }
    </style>
  </defs>
  <g class="cls-6">
    <g>
      <path class="cls-2" d="m1353.08,77.15c4.27-.4,8.07,2.73,8.47,7.01.03.29.04.58.03.87h0l8.76,174.82-24.14-173.37h0c-.06-.28-.1-.57-.13-.86-.4-4.28,2.73-8.07,7.01-8.47h0Zm-166.1,118.03c1.79-3.9,6.4-5.62,10.3-3.83.27.12.52.26.77.41h0s155.78,79.82,155.78,79.82l-162.21-65.78h0c-.27-.09-.54-.2-.81-.32-3.9-1.79-5.62-6.4-3.83-10.3h0Zm204.43,287.68c-4.27.4-8.07-2.73-8.47-7.01-.03-.29-.04-.58-.03-.87h0l-8.76-174.82,24.14,173.37h0c.06.28.1.57.13.86.4,4.27-2.73,8.07-7.01,8.47h0Zm166.09-118.03c-1.79,3.9-6.4,5.62-10.3,3.83-.27-.12-.52-.26-.77-.4h0s-155.78-79.82-155.78-79.82l162.21,65.78h0c.27.09.54.2.81.32,3.9,1.79,5.62,6.4,3.83,10.3h0Zm-19.17-202.86c2.49,3.5,1.67,8.35-1.83,10.84-.24.17-.48.32-.73.46h0s-147.02,95-147.02,95l138.07-107.59c.22-.19.44-.37.68-.54,3.5-2.49,8.35-1.67,10.84,1.83h0Z"/>
      <path class="cls-4" d="m1395.39,100c3.79.49,6.47,3.96,5.98,7.75-.03.26-.08.51-.14.76h0s-26.69,153.6-26.69,153.6l13.04-155.36h0c0-.26.02-.51.06-.77.49-3.79,3.96-6.47,7.75-5.98h0Zm-167.46,69.96c2.32-3.04,6.66-3.63,9.7-1.31.21.16.4.32.59.5h0l119.68,99.91-128.03-88.97h0c-.22-.13-.43-.28-.64-.43-3.04-2.32-3.63-6.66-1.31-9.7h0Zm-23.14,180c-1.47-3.53.19-7.58,3.72-9.06.24-.1.48-.19.73-.26h0s146.37-53.69,146.37-53.69l-141.06,66.39c-.22.12-.46.24-.7.34-3.53,1.47-7.58-.19-9.06-3.72h0Zm144.32,110.04c-3.79-.49-6.47-3.96-5.98-7.75.03-.26.08-.51.14-.76h0s26.69-153.6,26.69-153.6l-13.04,155.36h0c0,.26-.02.51-.06.77-.49,3.79-3.96,6.47-7.75,5.98h0Zm167.46-69.96c-2.32,3.04-6.66,3.63-9.7,1.31-.21-.16-.4-.33-.59-.5h0s-119.68-99.91-119.68-99.91l128.02,88.97c.22.13.43.28.64.43,3.04,2.32,3.63,6.66,1.31,9.7h0Zm23.14-180c1.47,3.53-.19,7.58-3.72,9.06-.24.1-.48.18-.73.26h0s-146.37,53.69-146.37,53.69l141.06-66.39h0c.22-.12.45-.24.69-.34,3.53-1.47,7.58.19,9.06,3.72h0Z"/>
      <path class="cls-1" d="m1456.85,60.64c4.62,1.78,6.92,6.97,5.14,11.6-.12.31-.26.62-.41.91h0s-80.92,185.05-80.92,185.05l64.29-191.47h0c.08-.32.19-.64.31-.95,1.78-4.62,6.98-6.92,11.6-5.14h0Zm-232.28,36.42c3.85-3.11,9.5-2.51,12.61,1.34.21.26.41.54.58.81h0s119.8,162.61,119.8,162.61l-133.67-151.41h0c-.23-.23-.46-.48-.67-.74-3.11-3.86-2.51-9.5,1.35-12.61h0Zm-84.6,219.37c-.77-4.89,2.58-9.48,7.47-10.25.33-.05.67-.08,1-.1h0s200.72-22.45,200.72-22.45l-197.96,40.06h0c-.32.09-.65.16-.98.21-4.89.77-9.48-2.58-10.25-7.47h0Zm379.95,146.54c-3.85,3.11-9.5,2.51-12.61-1.35-.21-.26-.41-.53-.59-.81h0s-119.8-162.61-119.8-162.61l133.67,151.41h0c.23.23.46.48.67.74,3.11,3.86,2.51,9.5-1.35,12.61h0Zm84.6-219.37c.77,4.89-2.58,9.48-7.47,10.25-.33.05-.67.08-1,.1h0s-200.72,22.45-200.72,22.45l197.96-40.06h0c.32-.09.65-.16.98-.21,4.9-.77,9.48,2.58,10.25,7.47h0Z"/>
    </g>
    <g class="cls-5">
      <path class="cls-3" d="m1295.46,88.14c4-1.56,8.51.41,10.07,4.42.11.27.19.55.27.82h0l56.4,165.7-70.79-160.08h0c-.13-.25-.25-.52-.36-.79-1.56-4,.42-8.51,4.42-10.07h0Zm-127.33,159.08c.65-4.24,4.61-7.16,8.86-6.51.29.04.57.11.85.18h0s171.7,34.01,171.7,34.01l-174.03-18.73h0c-.29-.01-.57-.04-.86-.08-4.25-.65-7.16-4.61-6.51-8.86h0Zm275.53,220.53c-4,1.56-8.51-.41-10.07-4.41-.11-.27-.19-.55-.27-.82h0l-56.4-165.7,70.79,160.08h0c.13.25.25.52.36.79,1.56,4-.42,8.51-4.42,10.07h0Zm127.33-159.08c-.65,4.24-4.61,7.16-8.86,6.51-.29-.04-.57-.1-.85-.18h0s-171.7-34.01-171.7-34.01l174.03,18.73h0c.29.01.57.04.86.08,4.25.65,7.16,4.61,6.51,8.86h0Zm-74.1-189.81c3.35,2.68,3.89,7.57,1.21,10.93-.18.23-.38.44-.58.65h0s-115.3,131.7-115.3,131.7l103.24-141.35c.15-.24.32-.48.5-.71,2.68-3.35,7.58-3.89,10.93-1.21h0Z"/>
    </g>
  </g>
</svg>