<?xml version="1.0" encoding="UTF-8"?>
<svg id="Layer_1" data-name="Layer 1" xmlns="http://www.w3.org/2000/svg" viewBox="0 0 730.94 13.64">
  <defs>
    <style>
      .cls-1 {
        fill: #8ccaea;
        fill-rule: evenodd;
      }
    </style>
  </defs>
  <path class="cls-1" d="m412.98,10.02c-.02.14-.89.09-.67.29-.32,0-.64,0-.97,0-.16-.1,1.27-.17.34-.21.11-.1.81-.06,1.29-.07Zm4.22-.49c-.09.08-.64.05-.66.14-.66.08-.45-.13-.63-.15-.51-.06-1.9.11-1.6-.15,1.35-.03,2.18.05,2.88.16Zm-4.24.63c.54,0,1.07,0,1.61,0-.02.22-1.91.29-1.61,0Zm18.11-1.01c-.77.1-.61.15-1.61.07-.6,0-.22.24-.67.29-1.07,0-2.15,0-3.22-.01-1.02-.06.58-.09.97-.07-.09-.17-1.11-.14-.94-.36-.6,0-.22.24-.67.29-1.87.05-2.11-.25-2.86-.44-.96.09-2,.08-2.57-.08,1.46-.15,3.68.15,5.13.24-.2-.07-.73-.08-.63-.22,1.17.03,2.54.02,2.55.3,1.8.17,3-.22,4.52-.2-.08,0,.2.23.63.15.07-.2-1.08-.15-.61-.43,1.03.16,1.43-.06,2.26-.06.58,0,.98.15,1.93.08-.02.07-.4.05-.65.07-1.09.19-.84.68-2.63.71.81-.08.63-.39,1.33-.5-.05-.08-.58-.06-.96-.08-.24.17-.4.21-.68.5-.69.03-.6-.11-.63-.22Zm-11.67.96c.21.25-1.15.25-1.62.14.06-.16.82-.15,1.62-.14Zm7.08.03c-.21,0-.43,0-.64,0-1.03.06-.99-.12-1.6-.15-2.83-.06.48-.03.98-.14.37.11,1.33.09,1.26.29Zm-4.84.12c-.68.03-.85-.05-1.28-.08.38-.13,1.71-.04,1.32-.35.71.03.22.38-.04.43Zm-3.8-.74c-.89-.03,0-.23.65-.14-.26-.18-2.24.01-2.56-.15.75-.15,1.14.04,2.26-.06.09.17,1.11.14.94.36-.61.07-1.06-.22-1.29,0Zm-6.77.12c-.35-.31,2.65-.3,2.25,0-.91-.08-1.34-.08-2.25,0Zm-203.61-2.05c.35-.24-.99-.12-1.6-.15.27-.13,1.53-.21,1.61,0,.6,0,.22-.24.67-.29.76.13,1.82,0,2.57.08.13.01-.12.19-.02.22.21.05,2.27-.05,1.28.15-1.3.07-1.42-.12-1.91-.22-.82,0-1.54.04-1.94.14.4.3,1.06,0,1.93,0,1.04.35,5.86.03,8.03.25-4.65.08-10.67.02-15.13-.06.78-.21,3.74.08,4.52-.13Zm-10.37.89c-.43.31-1.76.09-2.59.21-.51.07-.32.05-1.29,0-.56-.52,3.58-.19,3.88-.2Zm2.88.23c.23-.06.52-.2.02-.22-.66-.04-.78.13-.33.14-.61.22-1.52-.09-2.57-.01,0-.05,0-.1.01-.14,2.46-.05,4.8-.28,6.78-.26,1.07.01,1.22.22,2.57.08.38.1.12.11-.02.22.29.2,1.61.17,2.56.23.28.28-2.64-.09-1.94.14-.64.22-.94-.22-1.26-.29-.81.11-.79-.13-.95-.15-.34-.03-.97.04-1.29,0-.15-.02-.03-.21-.63-.15-.34.02-.15.08-.01.14.4.18.68.01,1.6.15.06,0-.47.13-.33.14.56.07,1.87-.11,1.6.15-2.6-.03-3.92-.12-5.78-.17Zm.66-.21c.61.03.57.21,1.6.15.4-.21-1.33-.31-1.6-.15Zm214.66.72c-1.32,0-1.27-.29-2.88-.23.91-.23,1.78-.21,2.57.01.65-.18,2.11-.31,2.9-.06.74.17-.84-.06-1.61,0-.66.02-.66.19-.99.28Zm-224.67-.33c-1.26.05-2.86-.34-.94-.36-1.12.24,1.13.11.94.36Zm2.62-.49c-.54,0-1.07,0-1.61,0-.48-.22,2.12-.21,1.61,0Zm216.84,1.67c.32,0,.64,0,.96,0,0,.1-.01.19-.02.29-.32,0-.64,0-.96,0,.55-.14-.02-.09.02-.29Zm-200.15-1.1c-.24.19-1.48.15-1.64.35-2.24-.04-5.02.05-6.75-.1,1.94-.18,4.25.04,6.12-.05.99-.05,1.29-.2,2.27-.21Zm103.51,1.86c-1.03.38-2.82.23-5.17.2.28-.24,1.59-.04,2.58-.06,1.02-.02,1.68-.15,2.59-.13Zm121.15-1.31c-1.38,0,.52.31-.99.28.2.07.73.08.63.22-.6.06-1.03-.05-1.6-.08-.54-.03-1.88.08-1.6-.15.75-.02,1.23.02,1.6.08.69,0,.06-.24.02-.22.23-.14,1.45,0,.99-.28,1.48.18,1.8-.15,2.9.01-.18.06-.35.12-.34.21-.46-.04-1.67.08-1.6-.08Zm-218.57-.23c-.5.2-1.4.12-1.93,0-.31,0-.26.09-.33.14-.74-.15-1.53.06-2.26.06-.37,0-1.45.08-1.28-.15,1.36.1,2.12-.2,2.92-.2,1.02-.01,1.51.18,2.88.16Zm-149.19-2.26c-.44-.29,2.93-.47,2.58-.06-.64,0-.39-.2-1.28-.15-.77.02.34.2.63.22,1.39.03.82-.4,2.28-.35-.24.25-1.41.5-2.62.49-.78,0-.76-.15-1.6-.15Zm26.69.32c.78-.03,2.05-.17,1.92.15-.61-.03-.56-.21-1.6-.15-.26.25,1.3.1.94.36-.86-.04-3.09-.29-2.57-.01-.48.19-1.76-.04-1.59-.22.37-.03.93.04,1.29,0,.19-.02.27-.14.33-.14.39-.03.89.02,1.29,0Zm-4.75-.95c.99-.16,3.32-.01,4.83-.05-.44.12-.87.24-.68.5-1.09.07-.48-.23-.62-.36-.86-.07-.39.14-.66.21-.18.04-.76.08-.64,0-.16.11-.11.2.3.29.19.04.4-.06.33-.07.32.04,1.28.33,1.91.22-.38.17-1.66.18-1.93,0-1.72-.02-1.62.21-3.22.06.05-.18,1.09-.14,1.94-.14,0-.07.01-.14.02-.22-1.26,0-1.31.24-2.58.06-.38.01-.28.13-.34.22-.88.05-.64-.15-1.28-.15-.91-.02-.65.24-1.94.14.03-.24.94-.27,1.96-.28,1.16-.15.99-.27,1.33-.5,1.23-.1.04.32,1.27.22.41-.02.34-.14.01-.14Zm-17.82,1.44c-.46.12-.62-.06-1.28-.08-.61-.01-.96.08-1.29.07-.86-.05-1.38-.22-2.23-.23.87-.39,2.25.19,3.55-.06.28.13.7.23,1.26.29Zm4.52-.2c.14.14-1.5.23-1.62.07-.78.09-1.21.26-2.59.21,1.64-.1.58-.31-.62-.36,1.42-.38,2.72.14,4.51-.05-.06.08.06.13.31.15Zm28.67-.24c-.32,0-.64,0-.97,0,.2-.17.31-.37,1.32-.35.25.2-.47.18-.35.36Zm-.24-.94c-.61-.03-.57-.21-1.6-.15-.33.05-.35.16-.98.14.04-.1.07-.2-.3-.22.8-.08,2.8-.15,2.88.23Zm-3.21-.16c-.37.29-1.53-.03-2.9.06.6.32-2.17-.06-3.23.13-.22-.31,1.68-.18,2.59-.21,1.32-.04,2.77-.14,3.54.01Zm.61.36c-.01.07-.4.05-.65.07-.02.12.23.19.63.22.05.1-1.87.09-.66.21-.16.26-1.13-.07-1.28-.08-.38-.03-.92.03-1.29,0-.16-.02-.19-.13-.31-.15-.48-.05-1.13.04-.95-.15-.57-.02-1.62.07-1.28-.15.82.1,1.96.07,2.89.16.57.05,1.11.45,1.92.15-.56-.14-2.12-.06-1.9-.37,1.61-.05,1.55.26,2.89.08Zm-34.53,1.01c.19.06.38.13-.01.14-1.35.06-4.45-.06-6.76-.03-1.17.05-1.15-.13,0-.07,2.28-.06,4.63-.15,6.76-.04Zm32.52-.08c-.61.1-.41.39-1.64.35.97-.1-.81-.38.67-.36-.19-.15-1.62-.03-1.26-.29,1.2.22,2.73,0,4.49.16-.85.19.51.06.3.29-1.47.08-1.25-.2-2.56-.15Zm-.7.72c1.05.18-2.29-.05-2.26.13-.9-.12-1.38.08-2.25-.08,1.19-.05,2.85-.27,3.56-.2-1.09.14-.27.15.95.15Zm-22.43-1.24c-.66-.04-.74.14-.98.14-.82.01-.39-.19-1.27-.22.76-.23-.09-.38,1.32-.43.21.22-.57.21-.36.43.83.04,1.85-.25,1-.36.07-.08.33-.04.32,0,.21,0,.43,0,.64,0,.22.22-.9.13-.67.36,1.43-.06,1.71-.2,2.9-.06-.04.21-.76.26-1.32.35-1.05,0-.85-.18-1.59-.22Zm-38.35.56c.6.14-2.59.03-3.55.06.57-.32,2.19,0,3.55-.06Zm12.67-1.39c-.51-.13-1.33-.18-2.56-.15.14-.23,2.23-.22,2.26-.06.13-.16,1.29-.09,1.63-.21-.99-.23-3.12.03-3.55.06.06,0-.05-.14.01-.14-.68.05-.99.18-1.31.28-.55,0-.83-.06-.95-.15-.81.03-1.78.11-2.26.06-1.23.1-.04-.32-1.27-.22-.45.02-.04.13.31.15-.25.16-1.81.02-2.58.06.4-.1,1.24-.1,1.63-.21-.06-.06-.32-.07-.31-.15-.72.03-1.04.15-1.63.21.31-.24-2.45-.19-3.2-.23.61-.08,1.14-.17,1.95-.21-.09-.1-.8-.06-1.28-.08,1.03-.21,4.77-.28,6.78-.26.54,0,.61.04.63.15.34-.03.25-.12.65-.14.68-.03.5.15.63.15.4,0,.55-.12.98-.14.69-.03,1.66.15,2.56.15,1.44,0,2.74-.09,4.19-.05,1.27.03,2.47.19,3.85.23.54.02.84-.07.97-.07,2.15,0,4.23.27,6.12.02.23.07.58.11.95.15-.27.16-1.99-.02-1.63.28.93-.1,1.89-.2,2.6-.35,1.51.25,4.3.05,6.42.17.77.04.7.15,1.27.22.8.1,1.95.03,2.23.22-.27.33-1.86.07-2.58.06-.99,0-2.16.02-2.9-.01-.34-.01-.65.07-.65.07-.24-.01-.86-.15-.95-.15-.39,0-1.15.07-1.62.07-1.13-.02-1.47-.09-2.58.06-.07-.21,1.31-.26.03-.36-.48.03.12.09-.02.22-.71.08-1.78.08-1.95.28-2.52-.13-4.18-.05-6.1-.24-1.24.06-2.15.19-2.61.42-.8-.06-1.72-.1-2.89-.08,0-.1.02-.19.02-.29-.84-.02-1.39.02-1.3.21Zm11.6-.17c-.06-.08-.35-.11-.63-.15-.02.34.9.14,1.92.15-.28-.13-.08-.36-.61-.43-.7.16.39.32-.68.43Zm-2.24-.15c1.01.04.87-.19,1.63-.21,0,.07.56.09.64,0-1.21.07-.49-.27-1.59-.22.32.27-.82.2-.68.43Zm-2.24-.15c.14.21,1.21.21,1.91.3.28-.2-.44-.19-.29-.36-.77-.03-.71.13-1.62.07Zm-13.8-.49c-.25-.02-.37-.06-.31-.15-.79.04-1.66.05-1.63.28.92.02,1.64-.01,1.94-.14Zm9.64.26c1.03-.08,3.16.19,2.57.01-.39-.06-3.31-.15-2.57-.01Zm-1.01.5c.19.42,3.28.04,3.56-.2-1.85-.09-1.55.32-3.56.2Zm135.95,2.71c-1.09-.06-.43.29-1.63.21.13-.21,1.34-.18,1.01-.5.56.02.72.13.62.29ZM6.97,6.79c.44-.3,1.6.01,2.9-.06.77.14-2.13.04-2.9.06Zm59.22.17c-1.23.1-.6-.2-1.6-.15.47-.22,1.58.11,1.94-.06,1.09.08-.9.02-.34.21Zm-2.2-.66c-.16-.16.62-.1.66-.21.9.08,1.33.08,2.25,0-.51.34-1.44.12-2.92.2Zm-7.2,1.48c-.43,0-.86,0-1.29,0,.18-.06.35-.12.34-.21-.21,0-.43,0-.64,0-.41.02-.34.14-.01.14-.41.22-1.22-.06-1.6-.08-.05.13.38.15.3.29-.76-.25-1.69-.19-3.21-.16.11-.17,1.53-.04,1.31-.28.19-.01.96.15.95.15.21,0,.34-.14.33-.14.7,0,1.39.07,2.9.01,0,.14.87.1.62.29Zm383.57,1.98c.05.21-1.17.25-1.62.14.06-.16.82-.15,1.62-.14ZM59.09,7.15c-1.33,0-2.33-.3-2.9.06-1.21.07-.9-.18-1.92-.15-1.25-.06-1.69.26-2.58.06.31-.14,1.35-.18,2.59-.21,1.61-.03,4.53-.1,4.81.24Zm.65-.07c.29-.57,2.77-.03,4.21-.27-.39.32-.2.09.63.22-1.14.36-3.13-.21-4.83.05Zm-2.52-.66c-.58,0-.69.08-1.29.07-.49-.29,1.39-.02,1.3-.21,1.52.07,2.9.18,4.82.16.52.2-3.93-.01-4.83-.02ZM8.47,12.13c.84-.3,1.18-.73,2.65-.93.23-.03,1.11-.01,1.61-.07.5-.05,1.77-.27,2.91-.13.67-.04,1.05-.15,1.63-.21,4.62.08,7.56-.12,10.62.04-.24.07-.59.11-.98.14.21.23.85.1,1.6.08.22.22,1.89.39,2.55.3-.91-.22-1.85-.43-2.86-.44,1.27-.17,2.37.07,3.87-.06-.57.24.93.25-.67.29.44.1,1.58.16,1.93.08-.05-.23-1.26-.2-.92-.51.54,0,1.07,0,1.61,0-2.08.09.35.47,1.26.29.05-.11-.7-.03-.96-.08-.75-.14,1.79-.02,2.59-.13.2.07.73.08.63.22.98-.17,2.45.13,3.52.23-1.66.1-3.64.13-3.91.56-.35-.02-.21-.14-.63-.15-.97.04.3.16-.02.29-1.21-.06-1.55.08-2.58.06-.31-.22.73-.12,1.3-.14.32-.33-2.26-.17-2.57-.01-1.02.03-.71-.22-1.92-.15-.34.07-.66.14-.98.21,0,.16,1.04,0,.97,0,.42.02.49.14.95.15.51,0,1.46-.12,2.57.01-2.82.08-5.8.12-8.71.18.41-.3.39-.5.06-.72-.98-.06-.95.12-1.94.06-.88.06.85.14.29.36-.54,0-1.07,0-1.61,0,.11.33,1,.28,2.23.23-.81.28-3.31.16-4.85.27.18-.06.35-.12.34-.22-.8-.01-1.01.11-1.62.14.14.06.27.13.63.15-1.37.22-3.83.19-5.81.26.37-.1.36-.17-.3-.22-.71-.06-1.35.26-.67.29-.05.16-1.37.02-1.94.06-.83-.22-.93-.6-1.87-.8Zm22.91-.7c-.05.23,2.39.33,2.57.08-.9-.11-1.32.02-2.57-.08Zm-5.8.05c.96.2,1.34.19.92.58,1.66.09.5-.43,1-.43.47.18,3,.22,2.91-.13-1.01-.09-.79.11-1.3.14-1.29-.08-2.42-.43-3.53-.16Zm-6.79.4c1.27.13,1.59-.02,2.26-.06.45-.03,2.06.09,1.62-.14-.07-.15-1.41-.03-1.6-.15-.46.35-1.49.16-2.28.35Zm.68-.43c.11-.19-.66-.19-1.27-.22-.34.24.43.24,1.27.22Zm-2.3.57c.8.01,1.02-.11,1.3-.21-.43-.02-.61-.1-1.28-.08,0,.1-.02.19-.02.29Zm-.98.21c.27-.05.91-.49-.28-.43-.49,0-.75.53.28.43Zm-4.53.27c-.34,0-.26.09.32.07.1-.23-.35-.35-1.26-.37-.3.23,1.06.1.94.29Zm152.58-3.85c.79.09,2.51-.02,2.56.23-1.41.04-1.8-.13-3.21-.08.09-.08.65-.05.66-.14Zm.94.29c1.08.16-1.5.31-1.94.14.36-.15,1.57.12,1.94-.14Zm-10.63.1c.16-.15,2.82-.51,3.87-.13.61-.05,1.19-.12,1.94-.14.05.06-.13.07-.33.07-.07.06.12.07.31.07-1,.32-4.22-.34-4.2.2-.91.06-.82-.1-1.6-.08Zm13.22-.23c1.56.07,1.67-.2,3.23-.13-.04.31-2.03.16-2.6.35-.5-.06-1.89-.29-.93-.44-.01-.22-1.27.22-1.29,0,.07-.28,1.46-.2,2.26-.13.26.23-.52.22-.67.36Zm-8.65-.47c2.04.08,2.95,0,5.14.09-.29.32-1.57.42-3.25.42-.49-.29,1.39-.02,1.31-.21-.97-.25-2.69.07-3.2-.3Zm-68.88-.13c.06.12-.57.18-.02.22-.5.21-1.44-.06-1.27-.22.43,0,.86,0,1.29,0Zm83.03.34c-.87.05-1.58-.13-3.22-.01.12-.17,1.53-.04,1.31-.28.75.07,2.04.03,1.91.3Zm12.49.84c-.28.16-3.34.22-4.18-.02-.27-.27.58,0,.97,0,.92.02,2.41-.08,3.22.01Zm-30.18-.99c-2.04,0-.26.46-2.29.42.2-.2,1.04-.25,1.01-.5,1.32,0,2.84-.18,3.21.16-.97-.06-2.73.21-1.93-.08Zm24.38,1.11c-.78.16-2.89.01-4.19.06,1.47-.14,2.93-.16,4.19-.06Zm-3.49-.66c-.83-.13-.97.03-1.92-.08.1-.15,1.2-.06,1.31-.21.43.05.59.16.62.29Zm8.39-.18c-.11.19.43.24,1.27.22-.77.32-2.57-.05-3.87.13-.32-.1-.28-.27-.94-.29-.97.04.3.16-.02.29-.28-.06-.72-.08-1.28-.08-.3-.14.98-.24.02-.29.12-.1,1.66-.24,1.94-.06.64,0,.43-.19,1.3-.14.14.15-.47.14-.98.14-.1.12.29.13.31.22,1.2-.11,1.57-.42,3.25-.42-.83.33.45.14,1.28.08.03.13-.4.15-.34.29-.99.05-.94-.13-1.93-.08Zm-12.32,1.03c-.74-.15-1.99-.02-3.22-.01-.57,0-.68-.07-1.28-.08-.58,0-.68.08-1.29.07-2.49-.03-5.83-.06-9.01-.04.12-.4,2.16-.12,2.91-.13.94,0,1.5-.19,2.26-.06.41-.02.34-.14.01-.14.34-.18,1.42.06,1.27.22,2.76-.08,4.75.05,6.77-.12.6.08,1.47.11,1.59.29Zm-85.2-1.35c.83.19-1.93.25-2.59.13.16-.21,2.42.07,2.59-.13Zm-3.72-1.82c.62.03,1.27.2,1.92.15.16.29-2.17-.09-1.92-.08-.26,0-1.57.06-2.58.06-.96,0-1.76-.09-2.57-.01-.07-.13-.54-.17-1.28-.15,1.02-.2,2.31.08,3.86.09.98,0,1.74-.1,2.58-.06Zm2.78,1.38c-.22-.22,1.12-.08.67-.36.55,0,.83.06.95.15-.57.06-.43.29-1.63.21Zm1.63-.21c.91.02-.35-.47.99-.36.4.18-.97.3-.03.36-.11.17-.88.16-.97,0Zm-1.19-1.16c-.98.02-1.23-.24-1.93-.08-1.03-.08,2.66-.34,1.93.08Zm52.18,3.6c-1.34.01-1.25-.1-2.25,0,0-.41,1.92.09,1.64-.35,1.09-.07.48.23.61.36Zm-35.41,0c-1.73.22-4.01-.05-5.79-.02-1.42.02-2.29.26-3.23.13-.07-.2,1.24-.1,1.94-.14.6-.03,1.13-.12,1.62-.14.47-.01.47.07.64.07.37,0,1.28-.16,1.6.08,1.66-.11,1.58-.11,3.22.01Zm-21.63-3.18c.28-.11,1.05-.1,1.62-.14.2.25-1.15.25-1.62.14Zm-3.3,1c-.49-.11-1.24-.16-1.91-.22,1.03-.54,3.95-.25,6.14-.26.38-.01.28-.13.34-.22.88.27,1.74,0,2.9-.06,1.01-.03.83.2,1.59.22-1.06.18-2.26-.1-3.55.06-.58.11-.6.35-1.64.35-.08-.12.31-.12.34-.21-1.9.11-4.15-.25-4.21.34Zm5.67,1.61c-.34.31-1.57.3-2.91.2-.37.14-2.77.27-2.57-.08,1.85,0,4.34-.19,5.48-.12Zm511.89-.38c-1.54.13-4.07.03-5.8.12,1.59-.18,3.99-.18,5.8-.12ZM208.39,4.15c-.21.24-1.22.1-1.94.06.2-.24,1.22-.1,1.94-.06Zm-2.28.35c.97,0,1.93,0,2.9.01.08.19-3.08.25-2.9-.01Zm.38-.72c.24-.22.87-.09,1.62-.07-.05.18-1.21.16-1.62.07Zm19.57.87c.15-.16,1.59-.02,2.26-.06-.32.27-1.3.05-2.26.06Zm-20.16-1.52c-2.29.1-3.4-.05-5.15-.02.5-.27-1.44-.02-.94-.29,1.05.09,2.05.03,2.89.08.07,0-.07.13-.01.14.27.06,1.27-.04,1.61,0,.49-.06-.08-.11.35-.29.77.24,1.7,0,2.89.16.37-.01.18-.07,0-.07.33-.22.85.09,1.28.08.12.16-1.95.17-.99.28-.62.17-1.62-.12-.94-.29-.31.08-1.19.02-.98.21Zm-6.56,1.49c.25-.26,2.35-.09,3.55-.13-.69.31-2.27-.04-3.55.13Zm31.95-.95c-.07.18.48.23.94.29.31-.05.5-.13.66-.21.75.03,1.2.12,2.25.08-.79.18-.16.23-.99.36-1.26-.11.07-.08.02-.29-1.13.03-1.12.33-2.91.2.13-.4-.6-.2-1.91-.22.04-.31,1.21-.35,2.6-.35.11.12-.26.13-.65.14Zm-30.89-.13c-.37.14-1.72-.09-2.9-.01.1-.23,2.1-.04,2.9.01Zm3.3-.99c-.04-.16,1.14-.03,1.61-.07-.15.28-1.12.19-1.61.07Zm33.72,1c.57-.09.86-.24,1.95-.21,0,.22-1.14.18-1.95.21Zm9.01.11c-.26-.04-.51-.08-.96-.08.56-.09.86-.24,1.95-.21-.11.15-.88.14-.99.28Zm-48.37.96c-4.39-.05-5.58-.02-9.97-.11-1-.11,1.17-.06,1.94-.06,2.36,0,6.1.04,8.69.03.11.12-.26.14-.66.14Zm61.58-1.12c1.39-.02,1.23.18.94.36-.98.02-.65-.24-.94-.36Zm14.55-.81c.84-.02,1.38.03,1.27.22-.84.02-1.38-.03-1.27-.22Zm-12.56.02c1.88-.12,4.32-.05,6.43.1,1.01.04.75-.22,1.94-.14-.07.06-.33.07-.33.14,1.73.08,2.4-.08,3.55-.13-.44.35.78.35,1.57.44-.8.34-2.93,0-3.53-.16-.23.27-1.71.54-2.61.42-.12-.2,1.2-.06,1.3-.21-.3-.22-1.09.03-1.29.07-.31-.07-1.53.09-1.93,0-.04,0,.05-.14.01-.14-.41,0-.75.11-1.3.14-.5.02-.45-.07-.64-.08-.44-.01-.84.16-1.61,0-.13-.03-.51-.04-.64-.07-.39-.1.72-.37-.94-.36Zm1.27.22c1.45-.05,2.53.39,2.59-.13-.97.02-2.5-.09-2.59.13Zm-26.86,1.69c-.19.25-1.56.1-2.26.06.15-.16,1.59-.02,2.26-.06Zm.67-.36c-.67.16-2.68.02-3.87.06.67-.16,2.67-.02,3.87-.06Zm43.74.54c.63-.24,1.3-.04,2.58-.06.85.13-1.89.04-2.58.06Zm-10.94-.04c1.15-.12,2.79-.06,4.51-.05,1.46,0,6.65.05,3.85.09-2.12.03-6.03-.05-8.37-.03Zm105.68,2.88c.84.33-2.48,0-3.55.13.68-.16,1.89-.28,2.58-.06.46,0,.91.02.97-.07Zm4.81.24c-1.17-.05-2.33-.11-3.86-.09.85-.17,3.72-.22,3.86.09Zm2.21.58c.8.01.07.24-.02.29-.8,0-.98-.12-1.6-.15.27-.19,1.5.17,1.62-.14Zm-196.69-4.03c-.94.13-3.89.09-4.83-.02,1.54-.18,3.81.02,4.83.02Zm89.58-1.08c.19-.63,2.86-.61,4.86-.34.45-.02.04-.13-.31-.15.94-.22,2.09.11,2.89.16.4,0,.15-.09,0-.07.75-.08,2.87-.07,3.53.09.49-.11,1.84-.01,1.63-.28,1.25.22,2.71.11,4.5.09.77.09.71.37,1.9.37.79-.14-1.78-.16-.61-.44.65-.02,1.01.02.95.15,2.19-.03,5.09.11,6.76-.04.7-.01,1.02.06.95.22.48-.26,2.31-.26,3.87-.13.35-.19,1.76-.13,2.59-.21.14.15-.47.14-.98.14.81.22,2.02-.09,2.89.08.37-.01.18-.07,0-.07.35-.27.51.05.96.08,0,0,1.42,0,1.61,0,.53.01,1.09-.01,1.61,0,.39.02.95.15.95.15.37,0,.82-.18,1.31-.21.51-.03.56.08.96.08.27,0,.32-.08.65-.07,1.26.03,2.07.18,2.89.08.1-.01-.47-.09-.81-.08,1.44-.1,2.97.07,4.35.1.51,0,1.04-.07,1.61-.07.18,0,.71.09,1.28.08.45-.01.07-.11.33-.14.59-.08,1.64.07,2.25,0-.09.13-.57.16-1.3.14,1.28.11-.46.26.29.43.26-.01.33-.07.65-.07.97-.04-.3-.15.02-.29.26-.12.7.03,1.29,0,.12,0,.92-.14.98-.14.15,0,1.45.23,1.29-.07.72-.04.45.14.95.15.54.03.61-.05.66-.14,1.38.15,2.4.21,3.86.02.81.08,1.46.2,2.56.23.13-.12-.24-.14-.63-.15.56-.11,1.17.03,2.26-.06.6,0,.22-.24.67-.29,1,.11,1.4-.17,1.95-.21.3-.02,1.06.04,1.61,0,2.3-.12,6.76,0,10.3.04.7,0,1.82-.18,2.25.08.71.04.47-.14.98-.14,3.71.06,6.41-.05,9,.18-1.18.2-2.55-.11-3.87.06-.46.26,1.14.15,1.92.15.39,0,1.01.07.96.08.78-.02,1.12-.17,1.62-.14,1.7.17,3.83.21,4.83-.05,2.85.11,5.18-.1,7.07.17,1.87-.26,5.41-.04,7.73.03.74-.3,3.21-.05,5.47-.05,1.73,0,3.38-.13,4.84-.12,2.05,0,4.1.03,5.79.02,1.74,0,3.56.19,4.83-.05.83.23,1.54.01,2.57.01.53,0,.54.07.96.08,1.78.02,4-.11,6.13-.12,1.14,0,2.17.09,3.21.09.67,0,1.26-.12,1.94-.14.73-.02,1.48.09,2.25.08,1.08-.01,2.18-.19,3.22-.06.31,0,.26-.09.33-.14.77.05,1.46.11,2.57.08.98.17,1.52.43,3.51.37.63.22-1.34.34-1.02.72.36.2,1.68,0,2.25,0,.49-.06-.08-.11.35-.29,1.21-.05.68.28,1.59.29,1.2.08.93-.18,1.94-.14-.05.13.38.15.3.29,1.11.06,1.25-.1,2.26-.06.08.12-.32.12-.34.21,1.19-.04,2.22-.12,2.89.08.39,0,.16-.09,0-.07.94-.08,3.06-.06,3.86.09.61-.05.24-.21.97-.07.88-.04,1.52-.14,1.95-.28.43.07.4.24.94.29.26-.04.53-.07.97-.07.02-.17-.54-.21-.29-.43.82,0,.39.05.31.14.9.08.85-.11,1.62-.07.8.05,1.58.6,2.24.15-.06-.09-.95-.1-.97,0-.53-.08-.32-.31-.61-.43.77-.04,1.48-.1,2.58-.06-.15.16-1.76-.02-1.63.21,1.19.17,3.65.02,4.2-.2,1.05.08,3.07-.05,2.87.3,1.2.08.93-.18,1.94-.14.58.06-.2.08-.65.07.12.23,2.04.3.92.58.42.1,1.82.11,2.25,0-.26-.11-1.03-.11-1.6-.15.53-.11-.48-.41,1-.43,1.51.01-.36.1-.02.29,1.09,0,1.42-.24,1.93,0,.97-.04-.3-.15.02-.29.6.13,2.12.06,3.21.09.62.11-.59.3.61.36.55,0,.84-.05.98-.14-.06-.1-.96-.03-.95-.15-.31-.24,1.01-.11,1.62-.14-.27-.27-1.29-.06-2.25-.08.56-.37,2.2-.08,3.87-.13-.12.09-.58.11-.66.21,2.11-.12,2.05.22,2.87.37.26-.01.33-.07.65-.07-.47-.23-1.36-.37-1.56-.65.7.06,1.27.15,1.26.37,1.01.04,1.32-.08,1.63-.21.43.05.59.16.62.29,1.03-.04.4-.16,1.94-.06.5.03,1.29.05,1.28.15,1.19-.05-.12-.22.67-.36-.32,0-.64,0-.97,0,.34-.14,2.34-.04,1.91.22,1.44-.05,1.92.1,3.21.08-.76-.15-3.42-.17-2.54-.44.91,0,.73.22,1.59.22.26-.01.33-.07.65-.07.05-.13-.38-.15-.3-.29-.67-.03-.86.05-1.29.07-.57-.19,1.99-.13,2.57.01.03.13-.41.15-.34.29,1.25-.12,3.41-.1,3.85.16.63-.13-.25-.25-.61-.36,1.79-.2,3.3.42,5.46.17,1-.05.37.25,1.6.15,1.03.07.68-.18,1.3-.21,1.54.15,2.52.02,3.52.23.33-.05.35-.16.98-.14.44-.07.44-.24.99-.28-.35-.09-.27-.15.34-.14.07.22-.94.43.28.5.83-.01-.43-.13.02-.29,1.24.05,2.02-.14,2.91-.13,1.2,0,2.02.26,3.52.23.77.03-.15-.33.98-.21,1-.03.15.09.31.15.2.07,1.04.03.95.22,1.31-.08.42-.24,1-.43.96.1,2.56.11,3.54.01.69.15-.06.23-.35.36.53.16,1.98,0,3.22-.06-.29.25.19.32-1,.43.09.1.8.06,1.28.08.71,0,.16-.3.36-.43.98,0,.79-.26,1.95-.21.38-.01.28-.13.34-.21,2.09.11,4.03.02,5.79.1.31,0,.26-.09.33-.14,1.35.04,2.34-.04,3.22.01.06,0-.06.13-.01.14.27.06,1.27-.04,1.61,0,.35-.02.23-.14.66-.14.42-.23-1.04-.06-.62-.29,1.46-.2.76.42,2.56.15.08.12-.31.12-.34.21.99.1,1.8-.21,2.25,0,.38-.01.28-.13.34-.21,1.91.13,3.1.03,4.83-.05-.08.1-.96.02-.98.14.39.24,3.55-.28,1.3-.21.15-.16,1.59-.02,2.26-.06-.15.15.21.19.3.29.37-.01.18-.07,0-.07.79-.25,3.1.25,3.55-.13,1.02-.03.71.22,1.92.15.16-.15-.45-.14-.95-.15.33-.16,1.86.02,2.25.08.56-.02-.4-.25.98-.21.69-.03.61.11.63.22,1.07.06,2.03-.17,3.24-.2.19,0,.38.07.64.08.42.01.55-.07.65-.07.79,0,2.19.04,3.54.01.59-.01,1.65,0,2.25,0,.83,0,1.58-.19,2.25,0,.14.04.8.13,1.28.08.05,0,.34-.14.33-.14.12,0,2.23.34,2.58-.06,1.27-.01,1.99-.04,3.87-.06.37,0,1.39-.06,1.29-.07.43.01.49.14.95.15,1.02,0,.9-.24,1.61,0,.34-.07.66-.14.98-.21,4.76-.02,9.39-.07,13.54-.23.3.05.48.13.63.22,3.1-.35,6.27-.3,9.37-.39.84.02.28-.28,1.3-.21-.17.23.38.3.94.36.26-.22-.87-.14-.61-.36.8,0,1.56,0,1.6.15.44-.05.61-.15.67-.29,2.23-.05,3,.01,5.47.02-.9.33-.85.38-1.03.79.68.04.62-.1.66-.21.89.04.88.28,1.25.44,1.58-.13,2.98.14,3.87-.13.72-.04.45.14.95.15.35-.02.23-.14.66-.14,1.12-.05,1.23.11,2.25.08.18.15.47.27,1.59.22.75-.24-2.63-.09-.63-.22.53-.03,1.18.01,1.29,0,.79-.04.98-.13,1.3-.14.56-.01.68.08,1.28.08,2.5,0,5.62-.13,7.09-.04.38,0,.28-.13.34-.21,1.55.14,4.27.05,5.81-.19.66-.03,1.05.08,1.6.08.6,0,.78-.14.98-.14.39,0,.44.13.63.15.16.01,1.5-.06,1.61-.07.59-.01,1-.1,1.94-.06-.09-.1-.8-.06-1.28-.08-.77-.14,2.13-.04,2.9-.06-.76.18.93.23-.35.36.28.2.61-.19,1.61-.07.46-.16-.81-.27.02-.29,1.27,0-.11.11.63.22.6.03.4-.17.66-.21.26-.04,1.7.1,1.3-.14,1.78-.03,3.03.05,4.5.09-.18.23.68.28-.04.43,1.24.12,4.45.13,5.79.02.28-.02.28-.07.33-.14,2.67-.09,5.63.21,7.09-.04,1.38.07,3.5.21,3.55-.13.87.08,1.67-.06,2.58-.06.62,0,1.42.09,1.93.08.36,0,.75-.13.98-.14,1.29-.08,2.87-.03,4.19-.05,1.11-.02,3.12.03,4.83-.05,1.11-.05,1.89-.19,2.91-.2,1.18-.02,2.35.05,3.55-.06-.25.22.31.26.29.43-1.2-.06-.72.27-1.63.28.28.2,1.02-.1,1.93,0-.82.22-1.11.64.26.79.18.02.72-.13.98-.14.68-.02,2.23.05,3.54.01,1.17-.03,1.76-.22,2.9-.06.74-.25,4.05-.16,6.14-.26.65-.03.96-.16,1.63-.21,1.85-.13,3.74.06,5.46.09-.2.28.8.3.93.51,1.77.11,1.89.58,3.48.73-.67.26,0,.29.94.36-1.21.35.8.51.9.8-.52-.02-.56.07-.97.07.09.1.8.06,1.28.08-.79.18-.16.23-.99.36-.13.12.24.14.63.15-.43.04-.25.2-.67.29-.09.02-.57-.03-.64,0-.34.11.14.33-.35.36-.22.01-.36-.1-.64-.08-.63.06-.91.14-1.32.36-1.11-.06-1.25.1-2.26.06-.38.01-.28.13-.34.21-1.54-.28-4.6-.23-5.75-.6-.86,0-1.72,0-2.57-.01-.15.43.96.59,1.21.94-2.14.05.18.44-.7.65-.43,0-.86,0-1.29,0-.02.17.54.21.29.43-1.76-.06-2.04-.05-3.53-.09-.18-.15-.6-.25-1.26-.29-1.12.02.01.19-.66.21-.43,0-.86,0-1.29,0,0-.1.02-.19.02-.29-1.27.08-2.22-.23-2.58.06.02.11,1.93-.13,1.59.22-3.33-.01-6.65-.03-9.98-.04-.42.02-.52.12-.98.14-.02.17.54.21.29.43-1.56.07-1.4.25-3.23.13-.34.22.71.13,1.28.15,1.02.06-.58.09-.97.07-2.22-.09-6.02.17-6.74-.24-.64.12-1.06.29-2.59.21.08-.1.96-.02.98-.14-.06-.06-.32-.07-.31-.14-.77.04-1.51.09-1.63.28-2.25.06-3.99-.2-5.79-.02,1.66-.21-1.34-.18-1.61,0-2.02,0-4.37-.06-6.11-.02-4.7.09-10.74-.24-14.17.09-.57-.05-.04-.13.02-.22-.37,0-.57-.02-.64-.08-.92,0-.78.13-1.62.14-.57,0-1.35-.16-1.92-.15-.68,0-.86.17-1.62.14-.7.01-1.02-.06-.95-.22-.7.08-.8.3-2.27.21.09-.08.64-.05.66-.14-.37-.13-1.35,0-2.25-.08-.11-.01-.58-.15-.63-.15-2.34-.08-4.96.11-6.44.05-.3.05-.5.13-.66.21-1.23-.27-3.51-.08-5.15-.02,0-.07.01-.14.02-.22-.72.05-1.75.03-1.95.21-.98-.07.38-.19.34-.29-1.11-.01-1.53.13-2.27.21-1.4-.08-3.35-.05-4.52.13-.47-.04-.8-.11-1.28-.15-4.58.3-9.89.4-15.15.23-.78.06-1.57.13-2.27.21-1.28-.05-2.29-.17-3.85-.16,0-.1.02-.19.02-.29-1.17.12-3.15.42-4.2.13.4-.19,1.68,0,2.25,0,.8-.06.75-.32,1.95-.28-.2-.1-.68-.14-1.28-.15,1.04-.11.52-.44,1.01-.57,1.18-.31,2.86-.1,4.53-.27.61.03,1.38.03,1.27.22.48-.04.82-.1,1.3-.14-.07-.13-.54-.17-1.28-.15.76-.16,3.04-.05,3.86.02-.38.22-.17.19.29.36.8-.02,1.1-.27,1.94-.06-.05-.08.08-.13.33-.14-.06-.22-2.66.1-2.23-.23,1.4,0,2.9-.01,3.86.09,1.21-.05.04-.25.67-.36-.99-.02-1.83.16-2.57-.01.05-.13.23-.24.67-.29-.17-.1-.49-.18-.95-.22-1.17.13.55.2.29.36-.68-.04-.62.1-.66.21-.99.05-1.17-.08-1.93-.08.11-.1.81-.06,1.29-.07-.47-.32-1.72.03-2.26.13-1.2,0-1.55-.18-2.23-.3-.66.04-.12.36-1.31.28-.54-.07-.69-.23-.94-.36-.44.07-.44.24-.99.28-3.03.04-7.06-.06-10.94-.04-.74-.02-.38.21-.98.21.2.1.68.14,1.28.15-.9.23.33.45.59.65-.21,0-.43,0-.64,0-.21,0-.43,0-.64,0,.48-.22.3-.41-.93-.44-.26.22,1.1.09.61.36-1.25-.21-2.15-.1-3.22.06.56.15,1.23-.01,1.93,0,1.25.03,1.9.22,2.87.3-.46.09-1.19.38-.04.43-1.06.1-2.09.2-2.93.35-.88.05-.64-.15-1.28-.15-.88-.07-1.64.05-2.58.06-.53,0-.55-.08-.96-.08-1.1,0-1.94.1-2.9.06-1.95-.07-5.94-.03-8.05-.03-.59,0-1.58-.2-1.94.06-.88.05-.64-.15-1.28-.15-.55-.03-.61.05-.66.14-1.04.06-.42-.24-1.27-.22-1.17-.06-1.8.17-2.57-.01-.38.01-.28.13-.34.21-.97-.15-2.43-.18-4.17-.16-.31.05-.5.13-.66.21-3.56-.03-12.35-.09-18.35,0-.91.01-1.6.11-2.59.13-2.1.05-4.1-.09-5.8.05,1.65.07,1.13.2-.66.21,1.04,0-6.61-.06-9.33-.04-.53,0-.54-.08-.96-.08-.58,0-1.44.08-2.26.06-.7-.01-1.25-.08-1.6-.08-.76,0-1.31.2-2.91.13-.33-.01-1.02-.15-.95-.15-.49,0-1.06.19-1.63.21-.17,0-.57-.08-.96-.08-.83,0-1.68.13-2.59.13-.83,0-4.3-.07-5.47-.02-.36.01-.33.19-.98.14-.08-.12.31-.12.34-.21-.58-.01-.69.09-1.29.07-.06.08.06.13.31.15-.16.2-1.01,0-.63-.15-.77.1-1.16.08-1.94.06-.25,0-1.78.14-2.26.13-.62,0-1.22-.09-1.93-.08-1.93.01-4.41.08-6.12.05-.82-.02-1.78.13-2.59.13-.52,0-.55-.06-.96-.08-.96-.04-1.86.08-2.58.06-.63-.01-1.17-.13-1.6-.15-.6-.03-1.51-.08-1.93-.08-.28,0-.85.14-.98.14-.53,0-.54-.07-.96-.08-.57-.01-.69.07-1.29.07-.68,0-1.29-.09-1.92-.08-.93.01-3.43.29-5.15.05-.28.14-2.65.2-4.52.2-.46,0-1.12-.08-1.6-.08-3.45.03-7.03.22-9.99.1-.63-.02-1.18-.22-1.92-.08.05.08.58.06.96.08-.71.12-3.7.14-3.53-.16-.23.18-.8.08-1.94.14-.55.03-1.35.24-2.91.13-.14-.15.47-.14.98-.14-.19-.07-.73-.27.34-.21-.19-.22-.69.07-1.29,0,.26-.06.36-.16.35-.29-.9-.06-.84.1-1.61.07.38-.29-.96-.36-1.59-.22.39.25,1.76.28,1.89.58-.49.11-1.37.12-1.63.28-.46-.09-.47-.28-.94-.36-.93,0-.8.34.3.29-1.17.25-2.07-.16-2.22-.37-.61.15-1.91.14-1.65.5-.46,0-.91-.02-.97.07-.65-.14-2.12-.11-2.22-.37.84-.02,1.61-.02,1.27.22.54,0,1.07,0,1.61,0,.29-.27-1.55-.09-1.26-.37,1.02-.08.85-.03,1.6.08-.08-.24-1.41-.21-1.57-.44-.99-.01-1.47.25-2.26.06.05-.33,2.36-.53,1.99-.71.76-.14,1.73.07,2.9-.06-.55.14.02.09-.02.29,1.52.03.65-.48,2.29-.42.82,0,.39.06.31.15.71.04.47-.14.98-.14,1.47-.08,1.25.2,2.56.15,1.07-.1-.65-.18-.29-.36.19.13,1.53,0,1.6.15.77-.02-.34-.2-.63-.22.8-.12,2.28.08,3.23-.13-.59-.25-1.14.12-1.94.06-.13-.17-1.41-.2-.61-.36-1.46-.09-1.28.19-2.59.13-1.12-.03-.24-.18-1.6-.08-.64.05-1,.12-1.62.14-.61-.11-1.38-.17-2.24-.23-1.1.07.89.03.3.22-1.25.23-4.01-.14-4.52.13-.53-.1-1.06-.19-2.24-.15.58-.38,1.78.16,2.58-.06-1.09-.28-2.6-.48-3.8-.74-1.17.23.82.39,1.57.44-.15.26-2.49,0-1.97.42-.55,0-.83-.06-.95-.15-.57.19-2.15.14-3.55.13.1-.15,1.43-.01,1.31-.21-.69-.09-1.47-.16-2.24-.22-.82,0-.66.24-.68.43-.77-.05-2.34.08-2.57-.08-.06-.34,1.4.1,1.94-.14-.88-.33-1.87.07-2.89-.08-.05.13.38.15.3.29-.96,0-1.93,0-2.9-.01-.98-.16,2.3.05,1.95-.21-.76-.17-2.33.09-3.55.06,1.71.24-1.79.11-2.91.13-.92-.12,1.65-.05,2.26-.06-.45-.31-2.48-.08-3.22-.01-.83-.2-3.2-.32-4.18-.09.43.17,2.24.04,3.21.09.04.16-1.14.03-1.62.07-1.17,0-2.54-.05-2.91.13-1.82-.21-3.15-.09-5.46-.17-.35.02-.23.14-.66.14-.85.02-1.05-.1-.94-.29-2.18.22-3.52-.16-5.47-.02-.64-.15.15-.14.34-.29-.52.02-.55-.07-.96-.08-.41.01-.44.21-.02.22-.9.28-2.3.12-3.56.2-.04.1-.07.2.31.22-.76.14-1.73-.07-2.9.06.7-.15.15-.39-.61-.43.23-.21.68.07,1.29,0,.07-.16-.24-.23-.95-.22-1.41.06.14.38-.69.5-1.42-.15-1.54-.13-3.53-.16,0-.07.01-.14.02-.22-1.61,0-2.09.25-3.88.2.47-.19-.51-.17-.63-.22-.21-.09.23-.3-.62-.29-1.07.17,1.15.22.6.51-1.28.04-.9-.28-2.24-.23-.45.02-.04.13.31.15-.7.19-1.38-.07-2.25-.08-.78,0-1.78.12-2.59.13-.81.01-1.58-.11-2.25,0-.08-.12.31-.12.34-.21-.98-.02-1.27.23-1.94.06-.09-.17.94-.08.98-.21-1.2-.08-.93.18-1.94.14.18.2,1.33.18,1.25.44-.24-.04-1.11.04-1.29,0-.09-.03.5-.1.34-.14-.75-.18-1.47-.3-3.19-.37-.89.06.97.16-.02.29-.9-.04-1.66-.11-2.56-.15,0-.07.01-.14.02-.22-.68-.1-.72.02-1.29,0-1.13-.05-1.18-.26-1.94.06.66.07,2.09.26.3.29.54.17,2.45.04,3.53.09.1.25-1.46.13-2.27.14-1.02,0-2.18-.02-2.9-.01.01-.12.02-.24.03-.36-1.34-.01-1.76.13-1.32.35-.64,0-1.29,0-1.93,0,.12-.09.57-.11.66-.21-1.47.04-1.99-.14-3.53-.09.07-.06.33-.07.34-.14-2.48-.09-3.85,0-6.11-.1-.28.25-1.26.34-2.92.28.08.28,1.82-.07,2.56.15-.56.16-2.46.02-3.55.06-.11-.12.26-.13.66-.14-1.13-.08.07-.27-.62-.36-1.49-.07.43.19-.66.21-1.46.08-.69-.32-2.24-.23-.62,0,.48.27-.35.36-.76-.18-2.76.13-1.92-.15-1.57.13-3.1.13-4.51.05-.49.34,1.33.18,2.24.22-.29.28-1.4.04-2.26.06-.76.02-1.12.18-1.94.14-.3-.24.46-.23,1.31-.21-.04-.16-.8-.16-1.6-.15.18-.18.45-.25-.29-.36-.43.03.36.31-.67.36-.36.18,1.37.26.29.36-.82,0-.39-.05-.31-.15-1.67.07-2.09.02-3.86-.02-.01-.36,1.62.11,1.63-.21-.66-.2-.93-.05-1.92-.15-.71,0-.05.24-.02.22-.31.25-1.15-.06-.99.28-1.2-.05-2.05.18-2.9-.01-.75.23-3.67.08-6.13.12-1.37.02-1.5.1-2.57-.08-.35.02-.23.14-.66.14-4.13-.08-6.56.16-9.98-.04-.35.02-.23.14-.66.14-.78.03-.69-.13-1.6-.08-.32-.27.69-.23.99-.36.56.13,1.83.35,2.89.15-.17-.21-1.17-.03-1.92-.15-.18-.03-.17-.2-.3-.22-.55-.07-1.27-.03-1.93-.08-.42.23,1.04.06.62.29-.5.1-2.46.23-.99.36-.17.1-2.92.16-2.57-.08-1.62.25-4.05.06-6.76.04-2.96-.01-6.64.07-9.02.11-.88.05-.64-.15-1.28-.15-.7.07-1.51-.01-1.61,0-.52.03-.51.25-1.62.14-.59-.24.56-.14.98-.21.21-.04.44-.19.66-.21.42-.04,1.79.21,1.62-.07-.1-.12-.46.05-.97,0-.14-.01-.2-.36-1.27-.22-.14.17,1.47-.03.95.22-1.52.08-3.42-.18-4.81-.16,0,.26,2.1.07,2.56.23.42.29-.72.23-.68.43-3.22.11-5.89-.06-8.36-.18-1.91.21-4.11.25-6.13.12-.26.27.33.35,1.26.36-.12.17-1.41.06-1.63.21,0,.27.91,0,1.29,0,1.06,0,2.2.09,3.53.09.35-.02.23-.14.65-.14,1.16-.04,1.55.09,2.24.15.73-.04-.38-.11.34-.21,2.2.15,4.64-.09,6.75.1-.89.24,1.78.19,1.9.44.85.03-.27-.4.99-.28-.04-.08-.58-.06-.96-.08-1.02-.06.58-.09.97-.07.73.08,1.12.23,2.24.23.34-.22-.71-.13-1.28-.15.06-.24.95-.05,1.62-.07,1.34-.02,3.38-.11,5.15-.05.14.15-.47.14-.98.14.56.34,1.82-.01,2.26-.13,2.59.03,2.81.36,5.12.31.28-.27-1.52-.1-2.24-.15,2.48-.34,5.67.04,7.73-.04.24,0,.61-.14.66-.14.49,0-.06.14-.01.14.63,0,1.36-.14,1.94-.14,1.25,0,1.54.25,2.56.23.38,0,.28-.13.34-.21,3.01.1,5.7-.18,7.72.1.4,0,.15-.09,0-.07,1.09-.12,4.08-.09,4.82.09.68-.06,1.44-.11,1.95-.21,2.58.04,6.12.21,8.98.4.42.33,1.34.44,1.23.73,2.78-.07,4.06.02,6.76.03.3-.05.5-.13.66-.21.75-.02,1.24.02,1.6.08.77-.02-.34-.2-.63-.22-1.46-.09-1.81.29-2.9.06.64-.14,1.63-.21,2.91-.2-.14-.06-.27-.13-.63-.15.2-.13.5-.02.64,0,.23.03.84.08.62.29.42.01.87-.01,1.29,0,.4.02.94.15.95.15.59,0,.63-.23,1.62-.14.07.27,1.78.18,1.9.44.99-.08-.45-.28.35-.36,1.01-.03,1.55.1.95.22.81-.22,2.37.19,2.27-.21-.23-.25-1.53.21-1.61,0-.32-.25,1.4-.11,1.94-.14.28-.01.83-.13.98-.14,1.7-.06,4.33-.06,5.14.16.87-.1,2.28.06,3.54.01.77-.03,1.49-.14,1.95-.21-1.41-.21-2.55.09-3.86-.02.6-.25,1.93-.2,2.91-.2,1.02,0,2.31.15,3.86.09.26.23-.85.15-.99.28.99-.06,1.59-.22,2.6-.28.68.22,1.38.06,2.88.16.12-.19-1.81.06-1.27-.22.97-.02,2.5.09,2.59-.13.79.11,1.9.16,2.22.37.48-.06,1.25-.05.99-.28.85-.08,1.37.23,1.29-.07,1.18,0,1.21.26,1.9.37.88-.06-.85-.14-.29-.36,2.23.25,4.08-.03,6.11.1.33-.05.35-.16.98-.14-.88.31.73.13.94.36.39-.13,2.63-.21,1.96-.35.33-.24.63.08.96.08.91-.07-.45-.19.35-.29,3.12.06,5.89-.01,8.37-.04.52,0,.55.08.96.08.84-.01,1.52-.17,2.59-.13.33.01.96.02,1.28.15,1.16-.03,2.63-.03,3.87-.06,3.54-.07,6.28-.02,8,.54-.14.29-.04.53.92.58-.09.13-.57.16-1.3.14.69.15-.79.55.92.58-1.12.05-1.06.36-1.65.5-.26.06-1.3-.05-.98.14-3.26-.2-6.98-.14-10.28-.26-.53-.02-1-.14-1.6-.15-.83-.02-1.66.09-2.58.06-.56-.02-.69-.08-1.28-.08-1.13,0-1.79.23-2.57-.01-.35.02-.23.14-.65.14-.87-.03-1.74.03-2.57-.01-.37-.02-.94-.15-.95-.15-.35,0-.6.12-.98.14-.76.05-1.59-.09-2.25-.08-.6.01-.75.11-1.3.14-1.04.05-2.07,0-3.21-.08-.54-.03-.61.05-.65.14-1.91-.13-4.54-.04-7.4-.03-.61-.11.59-.3-.61-.36-.99.08.45.28-.35.36-2.51-.03-3.35-.06-5.79-.02.15-.09.43-.15.98-.14-1.07-.28-1.63.18-1.62.21-1.51.06.46-.19-.63-.22-.68-.04-.62.1-.66.21-.75,0-1.5,0-2.25,0-.52-.15.04-.09.02-.29-.32,0-.64,0-.97,0-.68.04,1.17.31-.67.29-1.32.02.06-.1-.3-.29-.88,0-.64-.12-1.29,0-.71,0-.16.3-.36.43-.75,0-1.5,0-2.25,0,.26-.06.36-.16.34-.29-.41.1-1.7,0-1.31.28-1.8.06-2.71-.08-3.19-.3-.61-.03-1.51.35-1.61,0-.89.06.73.29-.98.21.14.06.27.13.63.15-.17.02-2.95.22-2.24-.15-.98,0-.79.26-1.95.21,0-.07.01-.14.02-.22-.21.12-.98.11-1.3.21-.94,0-1.18-.17-1.59-.29-.08.32-2.41.17-2.91.2-.07,0,.67.12.96.08-1.77.22-3.97-.08-6.12-.02-.54-.25-.88-.44-2.2-.66-.99-.06-.63.2-1.62.14.93.27-1.04.31.29.43-.41.15-2.29-.04-1.64.35-3.76.18-8.78-.06-12.24.02.21-.27,1.94-.12,3.23-.13,1.18-.01,2.45.03,3.22-.06-.61-.1-1.62-.12-1.91-.3-1.29-.05-.82.3-1.96.28,0-.05,0-.1.01-.14-1.53.03-2.4-.1-3.2-.23-.35.02-.23.14-.65.14-.75,0-1.5,0-2.25,0-.77-.1-.19-.14-.63-.22-1.27-.02.09.11-.66.21-.85,0-2.01-.08-1.63.21-1.94-.16-4.86-.03-6.43-.1,1.09-.16,3.53-.01,5.15-.05.38-.11.94-.17.99-.36-.84-.02-1.39.02-1.3.21-1.21-.15-2.14.05-3.86-.02.39-.09.13-.11.02-.22-2.77.07-5.43.09-9.02.11-.78-.1.6-.22-.3-.29-1.38,0,.43.38-1.63.28-.66-.17.48-.38,1.32-.43-.21-.27-2.11-.12-1.63.21-.62-.03-1.17.04-.65.07-6.29.03-15.47-.16-21.57-.02-.37.01-.18.07,0,.07-.74.05-2.07.01-3.54.06-.18-.23,1.16-.09.34-.29-.86-.17-1.34-.05-1.6-.08-.83-.09,1.16,0,1.62-.14-1.22-.09-2.22-.23-3.52-.3-.36.33-1.54.47-2.63.64-.78-.04-1.65-.07-1.59-.29-1.49.24-3.34,0-6.44.05-.24-.07-.33-.16-.3-.29-.68-.04-.62.1-.66.21-1.47-.08-3.19-.02-5.15-.02-2.86,0-5.64-.19-8.03-.25-1.16-.03-2.31.14-2.89-.08-.43.02-.52.12-.98.14-.82-.01-1.12-.14-1.59-.22-2.49.27-5.88-.03-9.98.03-.77-.17.49-.13.35-.36-1.54,0-1.26.44-3.25.35.3-.13.91-.18.68-.43-1.16-.05-1.27.29-2.26.06.22-.15,1.51-.04,1.63-.21-.75-.17-1.68.24-3.23.13-.08-.19.46-.23,1.31-.21-.59-.25-1.14.12-1.94.06-.07-.15-1.41-.03-1.6-.15-.87.12-2.06.46-2.92.35.34-.09.34-.26.67-.36.58,0,.67.09,1.28.08.2-.34-1.81-.2-2.56-.15-.07-.21.75-.22.68-.43-.5.08-.81.2-1.31.28-1.12.03-1.11-.18-1.58-.29,1.53-.02,5.13-.28,6.43.1.73-.04-.38-.11.34-.21,1.37.03,3.32-.06,4.18.09.32,0,.26-.09.33-.14,1.89-.01,3.14.24,4.51-.05.87.22,4.19.09,5.48-.05.45.19,1.83.17,2.88.23.07-.28-1.3-.24-1.9-.37.44-.29.66.02,1.61,0,.7.02.17-.25.35-.36-1.99-.07-2.65.17-3.57.35-4.05-.08-6.38.01-9.33-.11.8-.08.65-.39,1.64-.43-.12-.16-1.71,0-1.92-.15-.12.14.05.23.63.22-.09.22-1.61.12-2.59.13-.02-.11.18-.27-.3-.29-1.17-.07-.18.35-1.63.21.58-.24.59-.17-.29-.36-.55.04-.22.17.31.15-.08.1-.96.02-.98.14-.76-.12-1.5-.2-.93-.44-1.31-.04-1.32.23-2.91.13-1.27.01-.96-.31-2.23-.3-.91.1-1.91.17-1.32.43-1.79-.02-2.67.11-2.6.35-.91.06-.83-.1-1.6-.08-.14-.15.47-.14.98-.14,0-.21-.72-.27-1.26-.36-1.28.12-1,.12-2.25,0-.38-.24,1.05-.05.67-.29.01-.17-.88.02-.65.14-1.06,0-1.61.12-2.9.06-.12.17.03.28.29.36.42-.1,1.4-.07,2.26-.06-.23.36,1.71.25,1.56.58-3.68-.08-10.17.05-13.51-.13.06-.33.75-.07,1.29-.07,2.71.02,6.87,0,9.65.04-.87-.14-2.53-.11-2.87-.37-1.1-.06-.43.29-1.63.21-.72.04-.45-.14-.95-.15-.75-.12-.87.13-.98.14-.15,0-.41-.07-.64-.07-.42-.01-.55.07-.65.07-1.44-.01-2.56-.17-4.18-.02-.55.02-.6-.06-.63-.15-.97.04.3.16-.02.29-.81,0-.77-.16-1.27-.22-.7-.01-.17.26-.35.36-2.54.04-4.91.13-7.09.12-.36,0-.47-.14-.63-.15-.35-.01-1.4.06-1.94.06-.65,0-1.62-.07-1.94.06-.26-.06-.88-.05-.95-.15-1.62.21-5.28-.06-7.74.11-.26-.23.85-.15.99-.28,1.28.08,1.93.08,3.22.01.62-.03.28-.28,1.31-.21-.99-.25-1.92.14-2.91.13-.32-.17-2.15,0-1.91-.3-.57.11.3.31-.68.43-.91.06-.83-.1-1.61-.08-.34.22.71.13,1.28.15-.47.17-2.2.19-3.24.2-.91.01-1.84.02-2.57-.01-.4-.01-.95-.15-.96-.15-.39,0-.45.13-.65.14-.72.04-1.25-.17-1.94.06-.55.02-.6-.06-.63-.15-.94-.02-1,.16-1.94.14.09-.13.57-.16,1.3-.14-.21-.14-.97-.17-1.26-.29-.75.02-1.51.04-1.31.28-.21-.06-1.9-.19-1.61.07.3.18,1.24-.09,2.25,0-.28.11-1.05.1-1.62.14.18.22,1.72.15,1.9.37,1.44-.1,1.7-.01,2.56.15-.16.16-1.36-.28-1.61.07.07.09.63.08.64,0,1.03.17-1.53.47.93.44-.18.34-2.57-.17-2.91.2,1.19.07,1.9.25,3.52.23.95-.06-.4-.18.03-.36.81.06.8.3,1.25.44.75-.02,1.34-.14,1.93,0-1.21.37-3.36.06-5.49.19.15-.11,1.02-.06.67-.29-1.24-.07-.55.31-1.95.21-.06.08.06.13.31.15-1.08.14-2.4.23-2.62.57-1.03.06-.99-.12-1.6-.15-1.43-.06-1.94.09-3.22.06-.05-.16.28-.23.98-.21-.94-.35-3.42.02-3.5-.45-1.36.09.02.41.6.51.04.16-1.14.03-1.61.07.98-.22-.47-.31-.6-.51-1.6.12-2.28.45-4.54.41-.87.05-.61-.15-.95-.22-.26.01-.33.07-.65.07-.66.08.92.19-.35.29-.69.03-.6-.11-.63-.22-.98.09-1.77.23-3.23.2-.84-.03-.88-.23-2.24-.15.05.08.58.06.96.08-.97.21-4.52-.05-6.45.12-.65-.07-.24-.37-1.26-.37-.48.03.12.09-.02.22-1.85-.01-3.72-.03-5.16.05-.02-.21-.37-.34-1.58-.29.2.07.73.08.62.22-.63.08-.49-.14-.63-.15-.68-.05-1.49.2-2.25,0,1.09-.25,2.15-.05,3.87-.13.76-.02.62-.25,1.63-.21-1.01.27,2.34.07,2.88.23.33-.07.66-.14.98-.21.81.06.8.3,1.25.44.98-.2,1.11.18,2.57.08.48-.43-1.95-.3-.91-.65.83.13,1.61.27,1.56.58,1.38.07,1.49-.19.67-.29.22-.12.75-.04.64.07,1.16-.04,1.55.09,2.24.15.62.03.5-.33-.3-.22.45-.22,1.42.14,1.93-.06.1-.12-.29-.13-.3-.22-.54.09-2.05-.03-1.95.21-1.29.07-.95-.22-2.24-.15-.16-.16.62-.1.66-.21-.1-.16-.58.07-.65.07-.41,0-.51-.16-.95-.15-.53.01-.86.15-1.62.14-.44.02-.28.18-.34.29-1.31.02-1.47-.2-2.23-.3-1.01-.04-.92.18-1.31.28-.73-.1-1.01-.3-1.57-.44-.65.29-2.6.28-4.21.34.33-.26-1.26-.11-1.92-.15-1,.04-.67.38-2.28.28.24-.07.59-.11.98-.14-.07-.17-1.41-.05-1.61,0,.25.07.37.15.63.22.87.22,1.52.08.94.29.97,0,1.93,0,2.9.01-.58.25-2.01.02-3.55.06-1.14.03-3.15.04-5.15-.02.25-.22-.31-.26-.29-.43-1.68-.1-2.44.02-3.86-.09.15-.16.59-.25,1.31-.28-.9-.23-1.44.25-2.28.28-1.14.03-.77-.26-1.91-.22-.61,0,.05.31.95.22-.68.36-1.13-.11-1.92-.15-1.31.08-.42.25-1,.43-1.27-.04.41-.31-.94-.36-.19.17-1.64.06-1.32.35-.97-.13-2.77.07-1.92-.15-.88.04-2.55-.1-2.9.06-.57-.06-.04-.13.02-.22-1.03-.07-.47.23-.99.28-.51-.27-.88.12-2.57-.01.2-.15.69-.23.99-.36,6.07.11,8.51-.21,13.86-.23.45-.02.04-.13-.31-.15,1.14-.05,2.34-.15,3.23-.13.27,0,.55.14.95.15.22,0,.78-.06.65-.07.5.04-.44.2,1.28.15-.58.45-2.24.1-3.24.2,1.37.27,3.39.4,5.76.45-.18.06-.34.12-.34.22,1.3-.06.76-.35.37-.57-1.41-.08-1.08.24-2.27.21.2-.33,1.46-.66-.59-.72,2.6,0,6.26-.31,9.34-.03,1-.21,3.29-.12,5.16-.12.62-.03.28-.28,1.3-.21.75.19.74.34.92.51,1.55-.06,1.22-.01,3.22-.06.15-.15-.21-.19-.3-.29-.52.15-1.8.12-2.28.28-1.92-.47,1.35-.62,2.94-.49-.02,0-.38.14-.33.14.16,0,1.91,0,1.62-.14,1.86.03,5.84-.02,8.7-.11,1.97-.06,4.09.07,5.79.02.83-.02,1.87-.18,2.91-.2,1.28-.03,2.51,0,3.23-.2-.17-.25-1.84-.17-1.9-.44-1.44.13-3.8.08-4.17-.23-.35.26-1.35.37-2.61.42-.28.2.44.19.29.36-1.97.08-1-.4-.6-.58-.3-.05-1.62,0-2.57-.08-.62,0,.48.27-.35.36.12.13,1.55-.24,2.25,0-.33.1-.88.14-.99.28-2.35-.1-5.11.02-8.69-.04-1.02-.15,2,.03,1.63-.21-.02-.18-1.07-.15-1.92-.15-.84-.02-.28.28-1.3.21.79-.21-.4-.28-.95-.22-.74.08-.02.32-.65.07-.5-.2-1.44-.29-2.24-.15.31.14,1.41.12,1.26.36-1.01.03-.83-.2-1.59-.22-.26.01-.33.07-.65.07-.24.19.65.14.95.22.3.16-.94.07-.97.07-.74.05-.76.12-1.3.14-1.43.04-3.37-.05-5.15-.02.82-.19,1.24-.05,2.58-.06-.02-.18-1.07-.15-1.92-.15,0-.21-.71-.27-1.26-.37-1.05.12.82.19.29.43-1.87.05-1.26-.44-2.21-.59-1.2,0-2.03-.08-2.89-.16-.6,0-.22.24-.67.29-1.66.05-1.32-.33-3.2-.23.21-.33-1.19-.31-.91-.65,1.09.2,2.27-.07,2.91-.2-.09-.1-.8-.06-1.28-.08.25-.06.36-.16.34-.29.7-.01,1.02.06.95.22.46.04.81-.28.97-.07.45.13.28.17-.65.14.59.13.3.38-.36.43.43.21,1.12-.12,1.94-.06.09.17.49.27.28.5.97,0,.34-.36,1.32-.35.11-.19-1.24-.06-.94-.29.46.04,1.67-.08,1.6.08.53-.1.81-.25,1.95-.21-.57.24-.43.44,1.26.37.84.17-.87.19-.03.36.4-.08.6-.2,1.62-.14-.13.12.24.14.63.15-.22.16-.67.43-.05.58.57-.06.43-.29,1.63-.21.39.29-1.07.14-.68.43,1.26.1.85-.19,1.31-.28.62.03,0,.33,1.27.22.19-.08.12-.27,1-.36-.26-.17-.81.2-1.94.06.51-.19-.71-.14-.95-.22-.13-.05.09-.16.02-.22-.1-.08-.81-.07-.63-.22.38-.06.87-.09,1.62-.07-.12.09-.58.11-.66.21.8.01,1.34-.03,1.62-.14-.12-.35-1.63-.28-2.88-.23-.31-.22.73-.12,1.3-.14-.58-.19-.9-.34.04-.5-.07-.08-.64-.05-.63-.15-.8.02-1.1.27-1.94.06.27-.32,2.92-.17,4.85-.2,1.08-.02,1.93-.12,2.9-.06.03.05-.99.11-1.29.07,1.01.16,1.1-.06,1.94-.06.49,0,.92.15.95.15.56-.01,1.01-.18,1.63-.21.52-.02.72.08,1.28.08,1.07,0,2.46-.17,3.22.01-.28.36-1.56.5-3.25.35.08.24,1.44.21,2.56.23.94-.06.37-.11.35-.29.64.03,1.01-.01.98-.14.57-.01,1.61.08,1.3-.14-.02-.14-1.21.11-1.6-.08,1.53-.18,3.32.02,5.15-.05.41-.02.81-.13,1.3-.14,1.41-.03,3.38-.04,4.83-.05,2.43-.02,5.12-.05,6.76.03.05,0-.06.13-.01.14.31.07.89-.13,1.29-.07-.71.47.69-.13,2.25,0,.38-.01.28-.13.34-.21,1.32.02,3.11-.06,3.53.16,1.01.04.75-.22,1.94-.14.23.25-.21.34-1.31.28-.05.22.96.22,1.92.22.25-.22-.31-.26-.29-.43,15.35-.24,30.82-.02,45.71.04,2.51.01,4.56-.02,7.08.03.52,0,.57-.08.97-.07,1.1.02,3.2.08,5.14.09,1.08,0,2.08-.1,3.23-.06,1.53.05,6.12.1,8.69.04,1.5-.04,3.41-.26,5.47.02,1.66-.09,2.91-.15,4.18.02-.2-.07-.73-.08-.63-.22,2.39.12,4.19-.02,7.08.03-.12.09-.58.11-.66.21,1.31.08.84-.24,1.63-.28.75.02.16.32-.03.36.91-.03,1.38-.17,2.27-.21,1.01.12,1.66.01,2.9.01.58,0,1.09.09,1.6.08.8-.01,2.13-.22,3.87-.13.46.02.83.14.95.15.56.02.86-.24,1.61,0,1.09-.04,3.7-.24,5.17-.27.6-.01,1.14.08,1.28.08.58,0,.68-.08,1.29-.07.66.01.65.13.95.15.16,0,.59-.07.97-.07,1.39.02,3.54.14,4.82.09.56-.02.94-.12,1.62-.14.23.07.58.11.95.15.67-.14,1.96-.07,2.9-.06.69,0,1.53-.13,2.26-.13.58,0,.67.08,1.28.08,2.17-.02,5.04-.09,7.41-.11.52,0,.55.08.96.08,2.19-.02,4.12-.16,5.48-.12.69.02.47.1.95.15,1.74-.04,3.21-.14,5.16-.12.2.07.73.08.63.22.38-.01.28-.13.34-.21,2.09.05,3.61-.32,5.15.02,1.15-.05,1.17,0,2.58-.06.36.09.91.13.62.36,1.44,0,.42-.16.99-.28,1.48-.06,1.54.19,2.88.16.6,0,.22-.24.67-.29,1.6.13,3.84-.04,6.12.03.68.02,1.47.14,2.24.15,1.98.03,5.57-.25,6.75.1.31-.05.5-.13.66-.21,2.12.19,3.4-.17,5.79.02.53-.31,1.27-.14,2.59-.21.12-.08-.51-.21-.63-.22-.34-.02-.59.13-.98.14-.49,0-.6-.09-.96-.08-.47.02-.87.13-1.3.14-.71,0-1.17-.07-1.93-.08-.77-.01-1.82.07-3.22-.01-.4-.02-.88-.15-.95-.15-.35-.01-1.42.08-2.26.06-1.07-.03-1.23,0-2.57-.01-1.13-.02-2.73-.04-4.51-.02-.08-.12.32-.12.34-.21-.98,0-2.12.03-1.91-.22-.38.01-.28.13-.34.22-.07.16,1.14.04,1.6.08-.97.26-3.2.17-4.83.05-.8-.1-1.03.28-1.29.07-.65-.15.15-.14.66-.21.33-.05-.09-.16.65-.14.26,0,.31.08.64.07-.06.08-.59.06-.97.07,1.02.2,2.12-.04,3.21.09.51-.39-2.51-.02-1.9-.44-1.79.1-2.36.44-4.53.27-.45.31,1.52.1,1.26.36-1.49.02-2.79-.01-3.53-.16.56-.1,2.39-.1,1.32-.35-.62.03-.28.28-1.3.21.31-.41-2.11-.27-2.57-.08.29.13.99.16,1.92.15-.33.28-1.63.05-2.58.06.76-.28-.57-.29-1.25-.44-.38.28,1.12.26.29.43-.87-.05-.78-.3-1.91-.3-.92.03.51.11.63.15-3.14.14-7.75.1-11.92.1-.38,0-1.75-.19-2.26.06-1.79-.12-5.32-.12-6.75-.1.51-.24,2.19-.12,3.55-.13,1.95,0,3.77.04,5.15-.05-.09-.26-.87-.18-.29-.43-1.18.06-1.7-.13-2.25,0,.41.04.66.08,1.6.15-.76.36-1.94-.06-3.22-.01-.14.17,1.47-.03.95.22-7.42-.05-17.85-.12-25.75-.1-.53,0-1.07-.08-1.6-.08-.73,0-1.27.08-1.94.06-1.08-.03-2.37-.35-3.21-.09-.11-.17-1.28-.1-1.59-.22-.41.02-.34.14-.01.14-5.68.35-11.91-.14-16.43.15-.46-.03.04-.06.01-.14-1.12.08-2.32.15-3.87.13.04-.19,1.26-.1,1.31-.28-1.01-.01-2.45.26-3.22.06.04-.31,1.35.09,1.63-.21,1.02-.03,1.13.13,2.25.08.26-.01.33-.07.65-.07.1-.16-.06-.27-.62-.29,1.03-.08,1.24-.4,1.33-.5-.5-.28-1.89,0-2.56-.15-.16-.23,1.03-.06,1.29-.07.34-.01.18-.14.33-.14.94-.04,2.14-.01,3.54-.06.54.13.45.54-.37.57-.25.16,1.16.3,1.28.15,1,.12-.68.23-.67.36.7.02,1.03-.05.98-.21,1.02-.03.71.22,1.92.15-.57.29-2.07-.09-2.59.21-1.1,0-2.41-.32-3.53-.09-.45.3,2.56.01,1.26.29,1.34-.17,2.24,0,3.24-.2.61.03,1.38.03,1.27.22,1.36-.2,4.06-.06,6.44.03,1.22-.16,2.93-.24,3.87-.13.9-.09,1.65-.2,2.91-.2.03.13-.41.15-.34.29.81.02.79-.16,1.31-.21,1.09-.02,2.6.07,3.22-.06-.2-.1-.68-.14-1.27-.15.62-.12,2.07-.06,2.59-.21,1.45.02,1.86.26,3.19.3.48-.03-.12-.09.02-.22,1.37-.01,1.72.2,3.2.16.33-.05.35-.16.98-.14.13-.12-.24-.14-.63-.15,1.06-.14,1.84-.03,2.57.08.73-.04-.38-.11.34-.21,1.05.06.41.48,2.22.37-.2-.07-.73-.08-.63-.22,1.09.14,1.2-.17,1.94-.06-.09-.01-.36.19-.02.22.3.02.88-.16.33-.14-.13-.2,1.75.06,1.62-.14-.39-.2-2.99.08-2.55-.3-.44.02-.28.18-.35.29-.54,0-1.07,0-1.61,0Zm-33.76-.57c.04.23.19.43,1.25.44.01-.14.02-.29.04-.43-.43,0-.86,0-1.29,0Zm.25.94c.32,0,.64,0,.97,0-.31-.22-.3-.5-1.9-.44-.57.34,1.5.1.93.44Zm24.45.24c-.94-.03-.24-.42-1.91-.3-.39.23.49.18.62.29-.24.12,1.51.12,1.29,0Zm-153.15,2.98c-.74.1-2.08.06-1.96.35,1.03.07.68-.18,1.3-.21-.06.18-.09.35.62.36.01-.17.03-.34.04-.5Zm15.11.2c.32,0,.64,0,.97,0-.21-.22.35-.26.36-.43-1.18-.03-1,.26-1.32.43Zm-.59-.65c.71-.21.37-.34,1.65-.5-1.14,0-3.12.34-1.65.5Zm-5.82.34c.03-.22,1.4-.41-.29-.43.32.27-.7.23-.99.36.61-.01.7.08,1.28.08Zm.29.43c-.08.1-.54.12-.66.21.43.02.6.1,1.28.08.1-.16-.06-.27-.62-.29Zm1.67-.79c.11-.1.47-.14.35-.29-.56,0-1-.02-1.28-.08-.08.21-.07.39.94.36Zm6.04.96c-.99-.19-2.05.07-3.54-.01-.07-.1-.52-.12-.63-.22.01-.1.57-.06.65-.14-.79-.07-.7-.32-1.91-.3-.66.02-.87.14-1.3.21.08.36.68.61,2.2.66.23-.14-.42-.1-.63-.15-.33-.08-.95-.31-.29-.36.79.07,1.38.17,1.25.44,1.63.01,3.09-.02,4.2-.13Zm.53,1.37c-.92-.02-1.64.01-1.94.14,1.17-.13.95.02,1.93.08,0-.07.01-.14.02-.22Zm6.69.89c-.26-.06-2.5-.21-2.26.06.23.14,2.37.12,2.26-.06Zm3.28-.78c-1.63.04-2.76-.31-4.17-.09-.37.39,1.41.31,1.92.15,1.27-.03,1.66.16,2.26-.06Zm4.51.02c-1.06-.24-2.48.22-3.54-.01.54.39,2.54.12,3.54.01Zm1.22.8c-1.47,0-3.11-.35-4.18-.02,1.66-.1,3.16.21,4.18.02Zm-11.97-3.22s.06-.09.33-.07c.11-.19-.43-.24-1.27-.22-.11.19.09.31.94.29Zm.22,1.3c.22-.28-1.76-.09-2.56-.15.55-.24-.05-.28-1.26-.29-.33.47,2.83.49,3.83.45Zm.04-.5c-1.04.06-1-.12-1.27-.22-.6,0-1.08.04-1.3.14,1.27.03,1.39.13.62.29.83.01,2.39-.17,1.95-.21Zm.41-1.08c.9.09.55.45,2.22.37.36-.16-.58-.15-.62-.29,0-.03.77-.08.66-.21-.05-.07-.11-.18-1.28-.15.3.4-.51.14-.99.28Zm7.37.46c.31.44-2.66-.13-1.64.35-1.11-.06-1.36.07-1.94.14-1.06-.15-2.1-.3-3.51-.37,0,.1-.02.19-.02.29,1.44-.02,2.26.04,1.59.29,1.71-.02,2.9-.16,4.52-.2-.35-.32,3.05-.23,1.01-.5Zm3.62-.99c-1.29.04-2.22.17-3.24.28-1.16-.13-2.74-.16-4.49-.16-.12.17.03.28.29.36.58-.09,1.87,0,2.26-.14-.81-.13-1.13.08-1.6-.08.91-.17,2.1.02,2.56.15-1.7.11-.52.29-1.64.42-.61.01-.7-.08-1.28-.08-.07.2.95.17.94.36-.13.04-1.57.1-.66.14,1.08-.07,1.04-.39,2.6-.35-.83-.33.49-.34.99-.36-.61,0,.22-.28.67-.29-.15.36,2.24.18,2.54.44,0-.12.02-.24.03-.36-.85,0-1.9.03-1.92-.15.87-.02,2.37.11,1.95-.21Zm1.5,1.3c.92-.06.83.1,1.6.08.59-.32-1.68-.27-1.6-.08Zm1.99-.71c-1.38-.04-.43.19-.98.21-.85,0-1.89-.05-1.94.14,1.22.07,2.06-.11,2.57.01-.25-.2.47-.18.35-.36Zm1.96-.35c-.57.02-1.59-.21-1.93,0,.25.02.37.06.31.14.8.01,1.56.02,1.62-.14Zm2.24.15c1.05-.08.23.23,1.28.15.51-.03.29-.23,1.3-.14.42-.23-1.04-.06-.62-.29.96-.01,1.57.29,1.93,0-.94.02-.98-.17-1.92-.15-1.2.11-1.96.33-3.57.35-.06.08.04.2-.34.21-1.59.09.87.08.97-.07.43,0,.95.3,1.28.08-.35-.02-.76-.12-.31-.15Zm3.82.52c-.37-.08-1.13-.09-1.93-.08-.42.23,1.04.06.62.29-.99.05-1.17-.08-1.93-.08-.55.14.02.09-.02.29.96-.07,2.57,0,2.91-.2-1.5-.01.24-.13.34-.21Zm1.32-.43c.28.16.59.67,1.57.44-.56-.02-.72-.13-.62-.29.57-.01,1.61.08,1.3-.14-1.11.03-1.8-.04-2.57-.08-.42-.01-2.33-.02-1.29.07.54,0,1.07,0,1.61,0Zm-1.04.93c.41.06,3.08.2,2.25.08-.05-.14-1.86-.25-2.25-.08Zm2.55.3c-1.03-.09-.26.23-1.3.14-.51,0-.24-.18-.95-.15,0,.1-.02.19-.02.29,1.22-.05,1.53.09,2.57.08.17-.23-1.1-.2-.29-.36Zm2.63-.71c.4-.23-2.75-.28-1.92-.15,1.28-.09.64.24,1.92.15Zm1.24.65c-.9-.06-1.3-.24-2.56-.23-.18.26,1.86.39,2.56.23Zm3.56-.2c-.8-.05-2.54-.3-2.9-.01.79.05,2.79.24,2.9.01Zm1.35-.71c-.81.03-1.47-.33-1.92-.15.4.12,1.52.45,1.92.15Zm.05-.65c-.77-.14-2.58-.06-3.86-.09-.34.28,1.8.04,1.59.29-.45,0-.35.18.31.14.18-.1-.35-.37.35-.36.31.17,1.18.17,1.61,0Zm11.9.12c.76,0,.94.13,1.93.08.47-.23-1.91-.19-1.93-.08Zm-11.06,1.4c.25-.02.64,0,.65-.07-1.27-.07-1.02.2-1.32.35.43,0,.86,0,1.29,0,.25-.2-.63-.15-.62-.29Zm1.08-1.36c.07-.18-.48-.23-.94-.29-.11.1-.47.14-.35.29.43,0,.86,0,1.29,0Zm4.4,1.39c-1.68-.1-2.06.11-3.23.13.02-.19.91-.18,1.31-.28-.98-.19-1.74.14-2.28.28,1.69.1,2.77-.05,3.85.23-.25-.2.47-.18.35-.36Zm-.88-1.08c3.26-.06-1.28-.21-1.29.07.6,0,.72-.06,1.29-.07Zm4.18.09c0-.12.02-.24.03-.36.04-.1,2.32-.04,1.3-.14-1.24,0-2.37,0-3.21-.09-.54.35,1.65.11,1.25.44-.61-.02-.72.08-1.29.07.22-.38-2.99-.65-3.52-.23,1.3.02,2.48.06,2.89.08.59.36-1.08.19-1,.43,1.5,0,1.8-.27,3.56-.2Zm4.75,1.03c-.88.05-.64-.15-1.27-.15-.72.1.39.18-.34.21-.12-.12-.42.01-.97,0-.17-.23.62-.22.03-.36-.48.01-1.18-.03-1.29.07.18,0,.36.06,0,.07-1.65.1-1.36-.23-2.23-.3.08.29-.61.4-.38.72,1.35-.08,1.59.01,2.89.08.04-.09.11-.17.65-.14,1,0,.9.23,2.24.15.15-.14.93-.13.67-.36Zm-.29-.43c-1.21-.18-.57-.26-1.6-.08.37-.27-.78-.21-.61-.43-.66-.07-1.24.23-.66.21,0-.07.57-.09.64,0,0,.05,0,.1-.01.14-.67.04-2.11-.1-2.26.06.6.15,1.52.04,2.25,0,.84.27,1.91.14,3.2.23.24-.19-.55-.09-.95-.15Zm3.59-.56c-.57-.04-1.33-.04-1.6-.15.75,0,1.5,0,2.25,0,.28-.08.44-.19.35-.36-1.91-.1-2.01.22-3.56.2-.22.15.57.14.63.22,0-.01-.65.1-.65.14,0-.03.62.06.64.07.13.07-.68.16.31.15-.62-.36,1.47-.1,1.63-.28Zm2.85.59c-.6-.13-2.12-.06-3.21-.08.2.43,2.29.24,3.21.08Zm1.08-.33c.12,0,.28.02.56.05.37.03.22.14.95.15.24,0,1.22.04,1.3-.14-.56-.04-1.9.08-1.93-.08,1.52.07.9-.17,1.31-.21.37.08,1.13.09,1.92.08-.18-.31-2.53-.16-3.52-.3,0-.07.27-.08.33-.14-.99-.05-.61-.05-1.61,0-.5.27,1.44.02.94.29-.54,0-1.07,0-1.61,0-.35.3,1.44.03,1.59.22.06.08-.1.1-.24.1-.34-.02-.19,0,0,0Zm5.04.28c-1.71-.08-.78.12-1.3.14-1.34.05-2.79-.18-3.85-.09.47.01.28.18.3.29,1.5-.2,2.61-.04,4.84-.05,0-.1.01-.19.02-.29Zm8.68.18c.02-.1-.14-.16-.3-.22-.81-.02-1.02.11-1.31.21.42.09,1.18.1,1.61,0Zm3.59-.63c-.57.04-1.88-.09-1.94.06.4.1,1.91.13,1.94-.06Zm7.12-.48c-.63-.12-.41,0-1.29,0-.28.28,1.52.28,1.29,0Zm.27.72c-.73-.06-2.32-.3-3.21-.09.78.05,2.69.22,3.21.09Zm6.04.96c-.5-.03-.26-.23-1.28-.15,0,.07-.01.14-.02.22.48-.01,1.19.03,1.29-.07Zm2.6-.28c-1.08-.13-2.43-.08-2.27.28.2.02,1.22.18,1.29,0-.2,0-.38-.01-.32-.07,1.03.07,1.02-.11,1.3-.21Zm4.48.31c.16-.34-1.29-.02-1.93,0-.78.01-2.21-.21-2.58.06,1.47-.03,3.54.09,4.51-.05Zm2.64-.78c-.4-.1-1.91-.13-1.94.06.57-.04,1.88.09,1.94-.06Zm-17.83,1.58c-1.05,0-1.21-.21-2.56-.15-.06.36,1.6.28,2.56.15Zm3.53.09c-1.09.09-1.68-.29-2.25-.08,1.29.08.75.17-.02.29.96-.02,1.96-.03,2.27-.21Zm3.81.66c-.3-.17-.07-.46-1.25-.44-.16.27.65.33,1.25.44Zm.99-.36c-1.74-.1,1.23-.43-.93-.44-.51.23.13.57.93.44Zm8.71-.25c.37.01.34.12.3.22.56,0,1-.01,1.29-.07.24-.18-1.35-.31-1.6-.15Zm2.5.95c-.05-.11.14-.27-.3-.29.09.15-.93-.02-.96-.08.04-.11.83-.05.66-.21-1.43-.03-3.37.13-4.83.05-.8-.04-1.13-.27-1.91-.3,1.03,0,2.85-.21,2.28-.35-.67.23-2.86.21-3.25.42.04-.02,1.03.05.63.15-.57-.05-1.35.21-1.61,0,.38,0,.91.02.97-.07-.47-.09-1.31-.1-1.59-.22.37-.1.36-.17-.31-.22.22.22-1.12.08-.67.36.81,0,1.02-.13,1.28.08-.33.22-.68.43-1.02.64.43,0,.86,0,1.29,0,.44-.18-1.25-.23-.3-.29.31,0,1.42,0,1.28.08.03-.01-.9.04-.65.07.91.09,1.87.01,2.9.01.67,0,1.8.2,1.94-.06-1.53,0-1.92-.24-3.2-.3.95-.22,1.85.16,2.56.23.65-.03,2.4-.17,2.9.01.04.2-2.1-.1-1.63.21,1.53-.12,1.96.05,3.53.09Zm6.25-1.63c-.14-.21-1.11-.6-2.22-.37.36.02.49.08.63.15-.42.1-1.4.07-2.26.06.39-.22-.49-.18-.62-.29-1.11-.06-1.25.1-2.26.06.21.22.21.14-.03.36,2.25,0,4.51.02,6.76.03Zm9.03-.25c-1.17-.03-2.1,0-2.9.06-.08-.17.94-.08.98-.21-.25-.02-.64,0-.64-.07-.21,0-.43,0-.64,0-.06.11.09.27-.35.29-.42-.32-1.66-.01-2.57-.01,0-.07.01-.14.02-.22-1.33.22-3.37-.26-3.55.06,1.36-.06,2.36.18,1.58.37,1.26,0,2.36-.04,2.91-.2,1.69-.05,4.54.44,5.15-.05Zm6.59,2.11c-.95.1-1.19-.09-1.62.14.75.1.6,0,1.6.08,0-.07.01-.14.02-.22Zm2.04-1.36c-.37-.08-1.13-.09-1.92-.08-.47.23,1.91.19,1.92.08Zm.37-.65c-2.14.02.31-.24-.61-.36-1.44-.04-2.41.03-3.55.06-.8.09.56.22-.34.29-.75-.15-1.38-.31-2.54-.37-.56.09-.89.23-1,.43,1.16,0,2.57.03,1.3-.14,1.11.04,1.7.2,2.88.23.77-.33,2.88.08,3.87-.13Zm.35-.36c.39.02.19.08-.01.14.86,0,.68.23,1.59.22.64-.1-.86-.57-1.58-.37Zm143.65,3.1c.38-.01.91.02.97-.07-1.17-.05.9-.36-.62-.29-.36.06-.11.13-.35.36Zm-15.94-1.86c1.42.02,2.21.12,3.22-.06-.35-.04-2.55-.05-3.22.06Zm-15.27,1.81c.99-.05,1.17.08,1.93.08.05-.21-1.86-.3-1.93-.08Zm-4.83.05c.88-.17,1.83.14,2.58-.06-.31-.06-2.77-.21-2.58.06Zm-30.89-.13c.34-.09.34-.26.67-.36-.43,0-.86,0-1.29,0-.06.18-.09.35.61.36Zm-14.68-1.57c1.23-.03.63.34,2.24.22.18-.23-1.1-.19-.29-.36-.92-.02-1.64.01-1.94.14Zm-5.3,1.78c1.02-.08.77.12,1.28.15.1-.21-.59-.25-.94-.36.02-.14.88-.09.67-.29-1.92-.04-.76.18-1.01.5Zm-18.33-.29c.92.02,1.64-.01,1.94-.14-1.2.04-1.87-.21-1.94.14Zm-8.25-1.47c.54,0,1.07,0,1.61,0,.34-.29-1.9-.3-1.61,0Zm-2.66,1.07c.85,0,1.89.05,1.94-.14-.67.04-2.23-.13-1.94.14Zm-5.13-.24c1.09.05,2.69-.15,1.95-.28-.13.09-2.48-.15-1.95.28Zm-7.31-1.11c.22.21.98.31,2.23.3.58-.38-1.09-.28-2.23-.3Zm-6.23,1.42c.98.21,2.11,0,3.2.23.22-.19-.53-.09-.95-.15-.74-.1-1.89-.37-2.24-.08Zm-4.98-2.11c1.41-.04,2.24-.21,2.93-.42-.89.02-2.24-.22-2.9-.01.71.03.22.38-.03.43Zm8.07-.26c.22-.28-1.76-.09-2.56-.15-.44.02-.62.1-1.29.07.21-.19-.11-.26-.95-.22-.26.22.87.14.61.36-1.24-.07-1.4.11-1.95.21,1.96-.07,4.41-.38,6.14-.26Zm17.05.14c-.25-.02-.37-.06-.31-.15-.99.05-.62.05-1.61,0-.31.22,2.11.2,1.92.15Zm6.12-.12c-.73-.02-1.21.01-1.3.14.43.02.61.1,1.28.08,0-.07.01-.14.02-.22Zm2.25.08c-.37-.2-.49-.46-1.9-.44-.36.26.38.14.62.29-.03-.02-.48.1-.01.14.43,0,.86,0,1.29,0Zm21.6-.34c-.92-.02-1.64.01-1.94.14.95-.01.98.17,1.92.15,0-.1.01-.19.02-.29Zm121.58,1.28c.11.14-.72.19-1.63.28.64,0,.39.2,1.27.15.19-.09,1.68-.45.36-.43Zm7.09-.12c-.25-.02-.37-.06-.31-.15-1.08-.05-1.07.14-1.63.21.57-.04,1.88.09,1.94-.06Zm159.42-.87c-.81.05-1.3-.32-1.93-.08.34.05,1.46.29,1.93.08Zm4.79.52c-.58,0-.75-.07-.63-.22-1.01-.04-1.15.12-2.26.06-.1.13,1.55.32,1.91.3.14-.01-.03-.18.33-.14,0,.11.86.24.64,0Zm5.51-.41c.16-.18-1.66-.29-1.92-.15.6.06,1.17.13,1.92.15Zm94.99-.26c1.23.06,1.27-.34.02-.29,0,.1-.02.19-.02.29Zm-8.7.11c-.05.22.95.22,1.91.22.21-.26-.93-.22-1.91-.22Zm-3.42-5.49c.42.12-.15.46.93.44.28-.08.44-.19.35-.36-.61.01-.7-.08-1.28-.08Zm-8.36-.18c-.11.14.42.14.63.22-.22.17-.68.37.61.36.02-.1-.14-.16-.3-.22.7.02,1.03-.05.98-.21-1.12.05-1.35-.09-1.92-.15Zm-1.51,6.69c.9-.06,3.01.16,2.91-.13-.26-.21-.49.16-1.29.07-.03-.09-.08-.17-.63-.15.48.26-1.1.04-.98.21Zm-1.44-6.13c.79-.02,2.04-.15,1.64-.35-1.22.02-1.89.44-3.24.2-.31.21,1.03.16,1.6.15Zm-3.89.34c.5-.15,1.62-.16,1.64-.43-1.47-.09-3.04.3-1.64.43Zm-19.77,5.68c-.76-.03-.58-.25-1.59-.22-.2.19,1.29.37,1.59.22Zm-23.98-2.04c0-.1.02-.19.02-.29-.32,0-.64,0-.97,0-.11.19.09.31.94.29Zm-40.58.2c.96.02,3.11-.05,2.59-.13-.62.06-3.2.03-2.59.13Zm-4.14-.52c.78.04.66.28,1.91.22-.02-.17-1.38-.4-1.91-.22Zm-2.98,1c.12-.3-1.87-.06-2.25,0,.73.04,1.63.15,2.25,0Zm-11.85-.77c.87-.05.61.15.95.22,1.28.03,2.38.01,2.91-.13.08.1.7.09.95.15,1.75-.24,4.26-.11,6.12-.05-.29-.13,1.84-.04.65-.14-.61-.02-.72.08-1.29.07-.1-.17-1.24-.26-1.91-.3-.58-.03-.82.07-1.61.07-.78,0-1.82-.15-2.56-.15-.42,0-.44.09-.97.07-.85-.03-3.2-.1-3.24.2Zm-38.96.13c.76.03,1.49.21,2.23.23.86.02,1-.12,1.62-.14.32,0,.24.07.31.07.29.01.3-.07.33-.07,1.64-.02,2.54-.06,2.92-.28-1.18-.07-3.05.1-4.84.12-.92.01-2.22-.25-2.58.06Zm-44.97,2.77c.75.03,1.32.15,1.93,0,.32-.26-2.11-.17-1.93,0Zm5.83-.48c-1.21-.15-1.3.32-.67.36-.22-.22,1.12-.08.67-.36Zm-1.58-.37c.76.03.58.25,1.59.22,1.7-.18-.98-.57-1.59-.22Zm40.05-1.64c.1-.21-.71-.22-.61-.43.25-.02.64,0,.65-.07-1.74.02-2.03.48-.04.5Zm-18.07-3.46c.62.14,1.99.03,2.58-.06-1.28.02-1.95-.18-2.58.06Zm-8.7.11c1.22-.15,1.17.1,2.24.15.05-.18.62-.22.03-.36-.55.12-2.35-.05-2.27.21Zm-18.36.14c.4.1,1.57.12,1.62-.07-.4-.1-1.57-.12-1.62.07Zm1.3,3.82c1.12.14,1.44-.03,2.58-.06-.33.29,1.21.07,1.28.08.68.02.81.21,1.59.22-.21-.32,1.77-.13,1.96-.35.57.02,1.62-.07,1.28.15-1.01.03-1.3-.17-1.61.07.52.07,1.02.11,1.6.08.59-.03,2.72-.5,2.91-.13-.18,0-.37.06,0,.07.42-.21,1.86.32,2.26-.06-.19-.1-1.24-.02-1.27-.15,1.55-.02,2.68.2,3.55-.06.25,0,.51.21.63.22.27.03,2.06-.02,2.25,0,.05,0-.06.14-.01.14.63.02,1.31-.14,1.94-.06.04.08-.07.2.31.22.71-.15-.02-.23-.29-.36,1.34-.07.37-.29,1.96-.35.64,0,.39.2,1.28.15.23-.12.88-.12,1.3-.14,1.93-.07,4.25-.08,6.44.03.29-.1.5-.23,1.31-.21,3.45-.06,5.07-.09,8.7-.11.28-.51-2.38-.15-3.53-.16-1.97-.01-3.77-.14-5.46-.17,0,.12-.26.18-.66.21-2.77-.14-4.23.04-6.77.12-.19-.16.93-.23-.31-.22-.39.13-1.25.15-1.63.28-2.36-.07-4.64.1-5.79-.1-1.26.13-2.64.12-3.54-.01.37.35-1.65.16-2.28.28.11-.15.88-.14.99-.28-1.11.13-1.54-.02-2.9-.01-.54.28,1.39.03,1.27.22-.23.26-1.54-.03-2.9.06-.04.09-.11.17-.66.14.64-.23-.11-.05-.96-.08-1.36-.04-2.39-.06-2.91.13-.01-.13.09-.22.35-.29-1.19-.08-1.05.15-1.63.21-2.07-.06-3.99-.05-4.49-.23.05-.09.59-.16.02-.22-.48.08-.52.27-.99.36-.87,0-1.48-.31-1.93,0,1.38.1,2.48-.05,2.89.16-.54.07-1.47.09-2.26.13-1.37.08-.47-.03-1.6-.08-1.62.47,5.9.36,5.78.17Zm-15.15.3c.25-.25-1.11-.26-1.6-.15-.25.25,1.11.26,1.6.15Zm-9.78,1.47c.93.01,2.11-.03,2.57.08-.21-.12-1.15-.45-1.59-.29.2,0,.38.01.32.07-.6,0-1.08.04-1.3.14Zm-2.19-.73c.51.12,1.65.07,1.94-.06-.51-.12-1.65-.07-1.94.06Zm-.94-.36c-.07.29.81.19,1.6.15.35-.24-.99-.12-1.6-.15Zm-.63-4.11c.92.19,1.56-.13,2.27-.21-1.14-.02-1.93.04-2.27.21Zm-.61-.43c.17-.22-.67-.23-1.59-.22-.17.22.67.23,1.59.22Zm-4.54.41c.8.01,1.56.02,1.62-.14-.47-.12-1.83-.11-1.62.14Zm-3.82,3.51c1.21.11.63-.2,1.62-.14.63.06,3.2.34,3.54.01-1.16-.06-2.46.1-2.89-.08.08.03,1.02-.05.33-.07-.55.17-2.88-.08-2.6.28Zm-.36-3.53c.91-.06.83.1,1.6.08.03-.13-.05-.22-.3-.29-.8-.02-1.02.11-1.3.21Zm-9.64,3.71c1.63-.17,2.58.2,3.23-.06-.98-.07-.98-.35-2.22-.37-.38.11-.39.18-.02.29-.55,0-.83.05-.98.14Zm-3.18-.52c.85.03,1.06-.1.99-.28-.87,0-1.56.16-.99.28Zm-17.69-.14c.25.02.37.06.31.15.9.08,2.22-.11,2.25,0-.1.15-1.43.01-1.3.21,1.14.14,1.18-.02,2.26-.06-.46-.22.13-.28-.29-.43-1.21.11-2.39.11-3.23.13Zm-19.36.5c.61-.01.7.08,1.28.08-.25-.2.47-.18.35-.36-.94,0-1.21.16-1.63.28Zm-4.51-.02c.72.06,1.23.25,1.92.15.02-.1-.14-.16-.3-.22,1.12-.22,1.96.17,2.57.01-.32-.21-2.06-.12-2.88-.23-.06.11.09.27-.34.29-.04-.13-1.09-.05-1.28-.15-2.08.2-.76.06.31.15Zm-42.11-4.71c1.34,0,1.76.13,2.58-.06-.39-.02-.19-.08.01-.14-1.11.11-2.13-.24-2.59.21Zm-.66.14c0,.07.56.09.64,0-.66-.07-.64-.29-1.59-.29-.3.23.82.15.94.29Zm-4.49-.16c.43.1,1.94.08,1.94-.14-.89.12-1.5-.12-1.94.14Zm-6.32,2.5c.83-.05,1.83-.06,2.27-.21-1.37-.1-1.64-.01-2.27.21Zm-1.41-2.45c1.21.04,1.46.1,1.94-.14-.67-.16-1.75-.03-1.94.14Zm-22.05,2c.79.01,1.55.02,1.94-.06-.03-.13-.19-.24-.62-.29.4.31-.93.22-1.32.35Zm-1.92-.15c.2.04.95.3,1.28.08-.8-.33.82-.04,1.3-.14-.08-.43-2.23-.1-2.58.06Zm-13.42-1.21c.43.1,2.24.15,2.26-.06-.87.16-1.63-.11-2.26.06Zm-12.24.02c.14-.09.43-.15.98-.14.17-.23-.38-.3-.94-.36.03.13-.33.17-.98.14-.17.23.38.3.94.36Zm-2.87-.37c.15.18.58.3.93.44-.08-.2.5-.53-.93-.44Zm-.12,1.44c1.23-.11,3.53.04,3.89-.27-.54-.11-.38.04-.97.07-.99.04-3-.11-2.91.2Zm-10.9-.62c-.61.08-1.49.09-1.63.28.91-.06.83.1,1.6.08,0-.12.02-.24.03-.36Zm1.64-.43c.74.03,1.24,0,1.61-.07.27-.16-.32-.48-.62-.29.74.08-.65.28-1,.36Zm-5.13-.24c.81-.06,2.76.15,2.59-.13-.81.06-2.76-.15-2.59.13Zm0,.07c.1.31,2.69.08,3.85.16.05-.14,1.07-.05.98-.21-2.18.01-2.62.18-4.83.05Zm233.38,4.11c.21-.2.91-.28,1.95-.28-.15.09-.42.15-.98.14-.06.06.12.07.32.07-.11.1-.81.06-1.29.07Zm-389.58.66c.2-.24,1.22-.1,1.94-.06-.34.2-1.31.09-1.94.06Zm272.69-.34c-.8.13-3.46.22-4.51.05-.03-.3.49,0,.97,0,.88-.16,2.6-.07,3.55-.06Zm-45.38-.18c-.98.08-2.29.04-4.19.05,1.18-.09,3.11-.15,4.19-.05Zm-198.67-3.39c.5-.39,2.89-.17,4.19-.13.88.03,2.39-.13,2.56.15-2.27-.16-5.05-.07-6.76-.03Zm-38.49,2.22c.58.01.69-.09,1.29-.07.3.17.54.36.6.58-.99-.09-1.8-.23-1.89-.51Zm32.07-2.46c.77-.16,2.89-.01,4.19-.05-.96.18-2.98.05-4.19.05Zm28.62.4c-1.84,0-4-.02-5.47-.02,3.05-.32,5.73.07,9.98-.03.64.12-3.17.06-4.51.05Zm-62.59,1.69c1.07,0,2.14,0,3.21.01-.61.05-3.07.3-3.21-.01Zm-9.03.18c.46-.18,1.12-.12,1.94-.06-.46.18-1.12.12-1.94.06Zm5.16-.12c1.25-.14,2-.01,3.21.09-.53.12-1.46.15-2.59.13.02-.12-.23-.19-.63-.22Zm30.44,1.71c1.33.09,1.27-.15,2.26-.13.75.44,2.09-.03,2.89.08-.18.06-.35.12-.34.21-.66-.05-2.12.08-2.25-.08-.72.06-2.64.3-2.57-.08Zm430.29,1.52c-2.11.08-4.23.03-6.76-.03,1.74-.11,3.86-.13,6.13-.12.55-.02.6.06.63.15Zm-134.33-6.88c.75,0,1.5,0,2.25,0-.08.12-2.41.28-2.25,0Zm192.52-.16c.06-.12,1.35-.21,1.95-.21.49,0,1.79.06,1.59.22-1.39-.1-1.8.01-3.54-.01Zm-176.75.15c.68.13,2.23.07,3.53.09,1.3.02,3.06-.11,3.21.16-2.1-.11-6.2.21-6.74-.24Zm80.45.4c-1.07-.25,2.43-.07,2.91-.2.05.08.58.06.96.08-.48.3-3.41,0-3.87.13Zm-60.55.4c.82.01,1.65.02,1.59.22-.92.01-1.76,0-1.59-.22Zm-22.2-.16c-.13-.2,1.75.06,1.62-.14.25.18,2.52-.07,2.24.23-1.37-.01-2.24-.13-3.86-.09Zm-10.3-.04c1.47-.04,1.77.18,2.88.23-.06,0-3.27.1-2.88-.23Zm11.24.33c1.06,0,2.28-.02,2.23.22-.53-.12-2.35.04-2.23-.22Zm4.17.23c.26-.24-1.3-.1-.94-.36,1.07,0,1.08.24,2.23.23-.09.13-.57.16-1.3.14Zm131.54,5.57c-.6.25-2.46.13-3.55.13-3,0-5.39-.01-8.05-.03-1.33-.01-3.09.26-3.53-.09,2.56.17,5.32-.05,8.05-.04,2.09,0,4.48.08,7.08.03Zm-28.01.1c-.61.02-2.39.08-3.22-.01.81-.21,2.18-.09,3.22.01Zm-18.66-.15c-.49.1-1.42.11-2.26.13-.24-.27,1.53-.09,2.26-.13Zm14.8.06c.06.28-3.51.12-4.19.06.77-.16,2.89-.01,4.19-.06Zm56.03-.13c-1.02.18-1.81.08-3.22.06.46-.16,2.24-.02,3.22-.06Zm25.77-.26c-.36.24-1.16.05-1.94.06-2.77.04-6.65.1-9.34.11.49-.4,2.08-.13,2.91-.13,2.32-.02,4.69-.06,8.37-.04Zm-45.74.39c-.41.24-3.89.17-3.54-.01.94.09,1.93-.04,3.54.01Zm16.11-.15c-.02.2-1.53.17-1.94.07.05-.16,1.37-.03,1.94-.07Zm-199.71-6.49c.67-.16,2.68-.01,3.87-.06-.67.16-2.67.02-3.87.06Zm-175.51.8c.44-.12,1.44-.11,1.95-.21-.14-.06-.27-.13-.63-.15.53-.26.47.17,1.28.08-.6.14-1.91.38-2.6.28Zm-7.71-.18c.3-.37,1.56-.12,2.58-.06-.25.16-1.81.02-2.58.06Zm10.69-.82c.96,0,1.96,0,1.91.22-.22-.16-2.23.06-1.91-.22Zm-7.42.19c.51-.2,1.93,0,2.25.08.8,0,1.01-.13,1.61,0-1.08.2-2.94-.02-3.86-.09Zm7.05.39c.29-.16,1.05-.01,1.62-.07.2-.02.26-.14.33-.14.51-.03.56.09.96.08.3-.01.91-.3,1.95-.21.31.22-.73.12-1.3.14.14.23-.78.29.29.36-.41.25-.66-.07-.96-.08-.44,0-.1.12-.33.14-.49.05-1.3-.17-2.25-.08.06-.08-.06-.13-.31-.15Zm18.03,0c1.6.03,1.94-.23,3.87-.13-.16.15.45.14.95.15-.81.31-2.72.3-3.87.06.02.18.58.23-.03.36,1.41-.05,5.12-.03,5.44.38-1.35-.02-1.89-.2-3.2-.23-.39-.02-1.13.2-.34.21-2.07.23-5.64-.11-7.41.04.58-.27,2.26-.21,2.92-.28.25-.16-1.16-.3-1.28-.15-1.18-.19,1.23-.15,1.94-.14.59.13-.16.21-.35.36,1.3-.04,1.83.08,2.89.08.29-.28-1.02-.17-1.27-.22-.09-.02.5-.11.33-.14-.23-.04-1.21.01-.95-.22.31,0,.26-.09.33-.14Zm-17.94-1.08c1.3-.03,2.42-.26,3.57-.35.85-.06.43.12,1.29,0,1.68-.23,4.53-.27,8.07-.33.31.1,1.08.1,1.27.22.08.33-1.86.19-1,.5-1.15.11-1.44-.04-2.58.06-.01.31,1.91.2,3.2.23.03.13-.41.15-.35.29-1.61-.28-3.77-.06-6.11-.1-.14-.15.47-.14.98-.14.74-.05.98-.21,1.32-.36-1.15-.22-1.02.05-1.62.14-2.55-.03-4.77-.26-6.76-.03-.2-.1-.68-.14-1.27-.15Zm6.13-.12c.08.1.7.08.95.15.24-.29-1.21-.21-2.23-.23-2.19.01.36.12,1.28.08Zm8.93,1.04c-.09.08-.64.05-.66.14.03.16,1.36.04,1.92.08,0-.07-.39-.06-.64-.07-.15-.23.91-.32-.62-.29.72-.19.96-.11,1.94-.06.25.01-.69.09-.65.07-.12.07,1.84-.02,2.25,0,.14.15-.47.14-.98.14-.92.28-2.34.44-4.54.41.18-.06.35-.12.34-.21-.66.09-.61.35-1.95.28.11-.19-.09-.31-.94-.29.35-.42,2.02-.25,3.25-.35.01.2-.55.14-.02.29.51-.03.29-.23,1.3-.14Zm-26.47.9c.08-.1.96-.02.98-.14.84.01,1.87,0,2.57.01,1.13.02,2.49,0,2.56.23-.78.03-.69-.13-1.6-.08,0,.07-.01.14-.02.22.91.24,1.86.03,3.54.09.34.27-1.01.11-1.62.14-.49.02-1.13.12-1.62.14-1.62.05-3.36-.03-4.51.05-.78-.17.49-.13.35-.36.27.29,2.71.26,3.85.16-.25-.2-.87-.33-1.9-.37-.21.19.11.26.95.22-1.24.19-2.28-.26-3.52-.3Zm34.19-.87c1.3-.31,1.62.15,3.53.09-1.4-.1-.63-.25.67-.29-.21.34,1.24.11,1.9.37-.23.05-1.38.22-.02.22-.33.28-1.63.05-2.58.06.23-.17,1.69-.05,1.31-.35-.31,0-.26.09-.33.14-.75,0-1.5,0-2.25,0-.52.01.5.34-.99.28-.62-.22,1.31-.52-1.25-.51Zm-43.8.18c-1.14-.03-.78-.2-1.93-.08-.17-.28,2.13-.1,1.93.08ZM19.52,6.85c-.77.16-2.89.01-4.19.05.78-.16,2.89-.01,4.19-.05Zm192.48-3.69c.64-.1,1.51-.14,1.64-.35,1.12.02,2.48-.02,2.56.23-.66-.14-2.13-.06-2.9-.01,0,.07.39.06.64.07-.28.14-1.43.19-1.94.06Zm-197.34.07c.09-.13.57-.16,1.3-.14.04-.2-.52-.15.02-.29,1.2-.12,2.53-.09,3.87-.13,2.07-.06,4.21-.17,6.45-.19.49,0,.88.08.96.08,3.24.01,6.47-.2,9.68-.25.57,0,1.33.09,1.93.08.36,0,.91-.14,1.3-.14.51,0,1.1.08,1.6.08,2.22-.02,5.01-.11,7.41-.04-.28.2.44.19.29.36,1.3-.09-.08-.15.03-.36,2.37-.06,3.5.02,4.52-.2.74-.17.9.07,1.28.08.7,0,1.36-.23,2.25,0-.35-.46.94-.12,1.63-.28-.65-.07-.87-.24-1.26-.37-.54.11.12.27-.68.43-1.02.03-1.12-.13-2.24-.08,0-.1.01-.19.02-.29-1.08-.03-.21.38-1.65.43-.03-.13.41-.15.35-.29-1.25-.06-1.69.26-2.58.06-.91.16-1.77.32-3.56.27.46-.11,1.12-.18,1.95-.21-.31-.1-.84-.15-1.27-.22-.71,0,.3.15.31.15-.18.11-.57.01-.97.07-.5.07-.53.37-1.62.14-.32-.19.71-.08.98-.14.27-.06-.07-.27.67-.29-1.2-.29-1.92-.1-3.21-.16-.03.34,1.29.06,1.59.22.38.31-1.09.19-1.32.35-1.08-.07-.15-.13-.29-.36-.58-.13-.85-.33-2.23-.3.02-.26,1.21-.46,1.63-.21.88-.06-.84-.14-.29-.36.68-.17,1.5,0,2.25,0,.31,0,.71-.08,1.29-.07,1.48.02,3.19.16,4.82.16.66,0,.87-.07,1.29-.07,2.31.03,5.15.13,7.4.1.97-.01,1.66.06,2.57.08,5.42.14,11.11.19,16.38.43.53.02.82.12,1.28.15,1.11.08,2.21,0,3.54.01,1.02,0,1.45.13,2.57.01,1.01-.03.83.2,1.59.22,1.6-.13,3.38.1,5.16-.05.58-.02,0,.28-.66.21,1.16.26,2.89-.09,2.59-.21,1.17.08,2.69.08,2.87.37,1.54-.33,4.12.25,5.48-.12.6-.06.76.14.95.15.23,0,.54-.09.97-.07,1.4.06,3.84.24,5.77.24.47,0,1.59-.02,1.62-.14.38.01.26.13.31.22,1.77-.07,3.17-.07,4.5.02.31,0,.26-.09.33-.14,1.19.13,1.83-.05,2.56.15.71.04.47-.14.98-.14.72.09,2.16.15,3.53.16.83,0,2.41-.04,2.9-.06.67-.02,1.32-.12,1.94-.14,2.35-.05,4.75,0,6.76.03,1.89.03,3.88-.25,5.15.02.54-.02.73-.13,1.3-.14.51,0,.57.08.96.08.73-.02,1.78-.13,2.59-.13,1.82,0,3.54.13,5.47.09.49,0,.57-.06.97-.07.56,0,1.07.08,1.6.08.41,0,.92-.13,1.3-.14.17,0,.59.07.96.08.57,0,.68-.07,1.29-.07,2.5.01,5.2.1,7.4.03.53-.02.55.08.96.08,1.17-.03,2.68-.28,4.51-.05,1.27-.21,3.14,0,5.48-.05-.05.14-1.07.05-.98.21.8.02,1.02-.11,1.3-.21.6.13,2.12.06,3.21.08.74.03.37-.21.98-.21,3.26-.05,6.23.11,9.01.04.74-.02,1.25-.12,1.94-.14,2.02-.03,4.08.09,6.11.1.61,0,1.34-.08,1.94-.06.59.01.94.12,1.6.15.59.03,1-.07,1.61-.07,2.38.02,5.16.1,7.71.18.18.22-1.25.02-2.26.06-.61.02-2.1.33-2.25,0-1.14-.04-.81.25-1.95.21.02-.12-.22-.19-.63-.22.15.16-1.13.31-1.94.06-.36.27,1.2.12.94.36-2.18.04-3.08.01-4.83.05-.3.28,1.4.12.93.44-2.24-.17-3.79.26-5.46-.09-.67.04-.69.11-.34.21-.74.1-1.2-.19-1.29,0-.76-.02.38-.19.34-.29-2.27.16-3.7.24-6.13.12,0,.07.39.06.64.07-1.15,0-4.13.15-5.79-.02-1.14-.04-.81.25-1.95.21-.39-.11-1.09-.14-1.92-.15-.55-.03-.61.05-.65.14-.71-.03-1.73-.17-1.94.06.23.16,1.8.04,2.57.08-.1.19.09.31.94.29.26-.01.33-.07.65-.07-.2-.07-.73-.08-.63-.22,7.97.19,11.45-.02,18.98.15.38.1.12.11-.02.22,2.05,0,3.8-.06,5.47.02.35-.02.23-.14.66-.14.88.05,1.8.08,1.58.37.86-.08,1.01-.06.67-.29.32.05.32.17.95.15-.15.26-1.38.27-1.97.42-1.18-.14-1.15-.1-2.89-.08-.48-.26,1.1-.04.98-.21-.63-.17-2.54-.03-1.63.21-1.25-.08-1.88.15-2.57-.01-.14-.15.47-.13.98-.14-.45-.19-2.07-.05-1.94.14-1.62-.08-3.48-.1-5.47-.02-.91-.04-1.35-.18-2.24-.23-.35.02-.23.14-.66.14-3-.06-6.87.07-9.33-.11-.31-.24,1.01-.11,1.62-.14-1.12-.26-2.36.09-2.91.2-4.04-.18-7.03-.15-10.94-.12-.23-.14-.95-.05-.3-.22-1.01-.09-.79.11-1.3.14-2.55-.11-5.41-.15-7.72-.1-1.2.02-2.71.06-3.87.06-1,0-1.68-.09-2.57-.08-.51,0-1.1.07-1.61.07-.5,0-.74-.14-1.28-.15-.44,0-3.07.07-3.87.13-.34.03-.24.14-.66.14-.77-.11-1.08-.1-2.25-.08-1.08.01-1.36-.17-1.94.06-1.02,0-1.06-.2-2.24-.15.05.08.58.06.96.08-.36.28-1.21.07-1.94.06-4.02-.01-7.64.07-12.55-.05-1.51-.04-4.29-.03-6.43-.03-.58,0-.67-.08-1.28-.08-1.29.01-2.9.2-3.53-.09-.29.17-3.25.23-3.87.13-.14-.02.75-.1.97-.07.11-.13-1.79-.14-1.29.07-.51-.13-1.33-.18-2.56-.15,0,.07.39.06.64.07-1.31.16-3.97,0-5.8.05-1.19-.19-2.52-.35-4.8-.31.19.15,1.62.03,1.26.29-1.85-.08-2.15.19-4.19.13-1.2-.04-2.46-.16-3.85-.16.06-.08.59-.06.97-.07-.68-.2-2.15,0-1.31.21-.74.02-1.21-.02-1.27-.15-1.91.2-5.03.02-7.41.11,1.11-.21-1.36-.3-1.92-.15.18.26,1.64-.19,1.27.15-3.09.01-6.85-.06-9.01-.04.1-.12-.29-.13-.31-.22-.33.07-.66.14-.98.21-1.39,0-2.84-.04-4.18-.02-2.33.04-4.85-.09-7.4-.1-.6,0-1.34.06-1.94.06-2.7,0-7.5-.09-10.94-.04-1.05.01-1.93.11-2.91.13-2.09.04-4.07-.04-6.11-.02-2.56.02-5.05.11-7.41.11-.58,0-.67-.08-1.28-.08-.64,0-.89.07-1.29.07-.84,0-1.76-.18-2.58.06-3.93-.04-4.44,0-8.37-.03-.03-.13.41-.15.34-.29.86,0,1.72,0,2.57.01.7.02.17-.25.35-.36-.71-.04-.47.13-.98.14-.81.01-.29-.12-.63-.15-.54-.05-.86.07-.97.07-.8-.01-.92-.29-1.6-.15Zm167.67.6c.65-.01,1.28.33,1.93.08-.65.01-1.28-.33-1.93-.08Zm13.6-1.03c.6.08,1.51.1,2.24.15.21-.26-1.67-.44-1.9-.37.93.04-.5.11-.34.21Zm-3.15-.8c-.02.2,2.13.29,2.56.15-.7-.08-1.3-.19-2.56-.15Zm-10.96.17c.73.05,2.68.2,2.9-.06-1.12.12-1.93-.12-2.9.06Zm-8.17,1.55c.43.16,2.89-.06,2.26-.13-.28.15-2.05-.04-2.26.13Zm-21.78-1.31c.85.08,1.63.08,2.26-.06-.7-.04-2.07-.18-2.26.06Zm-9.67.11c.08.17.88-.08.98-.14-.97,0-1.93,0-2.9-.01-.33.26,1.26.11,1.92.15Zm-38.99.49c1.01.04,1.32-.08,1.63-.21-.82,0-1.66,0-1.63.21Zm-1.66.64c1.19-.07,3.79.31,4.19-.05-1.23-.09-.49-.04-.97.07-1.03.22-3.05-.49-3.22-.01Zm-7.09.12c.61.13,1.98.03,1.95-.21-1.24-.07-1.4.12-1.95.21Zm-.63-.15c-.94.01-.98-.17-1.92-.15-.43.24,1.61.3,1.92.15Zm-13.71-1.71c.43,0,.86,0,1.29,0,.54-.33-1.64-.26-1.29,0Zm-4.83.05c1.71-.09.97.36,2.55.3-.01-.23-1.09-.24-1.58-.37-.38-.23,1.05-.05.67-.29-1.09,0-1.22.21-1.64.35Zm-10.24-.76c-.43,0-.86,0-1.29,0-.27.28,1.52.28,1.29,0Zm-1.99.71c.92.02,1.64-.01,1.94-.14-.36-.02-.49-.08-.63-.15-.82,0-1.26.1-1.31.28Zm-16.69-.64c-.63-.15-.91-.37-1.9-.44-.54.25.9.23,1.26.29.1.02-.09.12-.01.14-.04-.01.71.08.64.07.41.06.85.03,1.28.08.34-.22-.71-.13-1.28-.15Zm2.27-.21c.54,0,1.07,0,1.61,0,.51-.22-2.09-.23-1.61,0Zm2.86.52c-.25-.36-1.67-.05-2.23-.3.09.17-.94.08-.98.21,1.21.1,1.79-.02,3.21.08Zm2.63-.64c-.8-.1-.93.11-1.62.14-.34.01-1.71-.25-1.61.07.61.11,3.29.08,3.24-.2Zm5.14.16c-.79.04-1.66.06-1.63.28.79-.04,1.66-.05,1.63-.28ZM26.25,3.2c.12.14.09.31.94.29.58-.15.74-.21.36-.43-.87-.06-.66.14-1.3.14Zm-4.54.41c.36.02.5.08.63.15-.34,0-.82.03-.33.07.71-.16,1.09.06,2.25,0,.14-.31-1.16-.2-1.92-.15.11-.12-.42-.2-.64-.07Zm195.07.14c1.56,0,1.81-.16,3.24-.27.88.12,1.55.28,2.22.44-.68.26-2.21.32-3.58.42.54-.14,1.1-.28,2.28-.28.11-.19-.43-.24-1.27-.22-.25.36-4.07.77-4.52.2.8.01.99.14,1.61,0-1.32-.34-3.86.13-4.82-.16,0,.1-.02.19-.02.29,1.21.06,1.55-.08,2.58-.06.62.42-3.06.36-3.23.13-.91.08-1.68.08-2.57-.01.3-.13,1.19-.11,1.31-.28.6.01.2.24.95.22.46-.01.13-.21.66-.21-.09-.1-.8-.06-1.28-.08.39-.31,1.81-.34,2.92-.35,1.07,0,2.34.24,3.52.23Zm-.25-.94c.32,0,.64,0,.97,0-.8.17.47.14.29.36-1.01,0-1.09-.19-1.26-.37Zm-5.5.41c-1.24-.05-1.14,0-1.93-.08.02-.11,2.4-.15,1.93.08Z"/>
</svg>