<?xml version="1.0" encoding="UTF-8"?>
<svg id="Layer_1" data-name="Layer 1" xmlns="http://www.w3.org/2000/svg" viewBox="0 0 614.79 253.21">
  <defs>
    <style>
      .cls-1 {
        fill: #65beb8;
      }

      .cls-1, .cls-2, .cls-3, .cls-4 {
        fill-rule: evenodd;
      }

      .cls-5 {
        fill: #1b2954;
      }

      .cls-6, .cls-2 {
        fill: #ec4a3d;
      }

      .cls-3 {
        fill: #e2a865;
      }

      .cls-4 {
        fill: #8ccaea;
        stroke: #8ccaea;
        stroke-miterlimit: 10;
        stroke-width: 1.86px;
      }

      .cls-7 {
        fill: none;
        opacity: .75;
      }
    </style>
  </defs>
  <g>
    <path class="cls-5" d="m34.3,196.73c-6,0-11.85-1.5-17.57-4.5-5.72-3-10.39-7.08-14.01-12.24-1.81-2.37-2.72-4.6-2.72-6.69,0-2.65.91-4.92,2.72-6.8,1.81-1.88,4.04-2.82,6.69-2.82,3.35,0,5.99,1.33,7.95,3.97,4.88,6.28,10.11,9.41,15.69,9.41,4.18,0,7.5-1.08,9.94-3.24,2.44-2.16,3.66-4.99,3.66-8.47,0-3.9-1.22-7.08-3.66-9.52-2.44-2.44-6.8-4.92-13.07-7.43-16.6-6.97-24.89-16.31-24.89-28.03,0-7.67,2.82-14.01,8.47-19.03,5.65-5.02,12.65-7.53,21.02-7.53,9.76,0,18.06,3.84,24.89,11.5,1.39,1.81,2.09,3.76,2.09,5.86,0,2.37-.87,4.43-2.61,6.17-1.75,1.75-3.87,2.61-6.38,2.61-2.37,0-4.53-.97-6.48-2.93-2.93-2.65-6.07-3.97-9.41-3.97-2.79,0-5.06.63-6.8,1.88-1.75,1.26-2.61,3-2.61,5.23,0,2.79,1.18,5.16,3.56,7.11,2.37,1.96,6.41,4.11,12.13,6.48,17.29,7.25,25.94,17.71,25.94,31.38,0,9.2-3,16.77-8.99,22.7-6,5.93-14.5,8.89-25.52,8.89Z"/>
    <path class="cls-5" d="m92.03,242.12V104.9c0-3.07,1.08-5.68,3.24-7.84s4.78-3.24,7.84-3.24,5.68,1.08,7.84,3.24c2.16,2.16,3.24,4.78,3.24,7.84v5.23c8.78-10.88,20.92-16.32,36.39-16.32,13.94,0,25.8,4.95,35.56,14.85,9.76,9.9,14.64,22.1,14.64,36.6s-4.88,26.7-14.64,36.6c-9.76,9.9-21.62,14.85-35.56,14.85-15.48,0-27.61-5.44-36.39-16.31v61.7c0,3.07-1.08,5.68-3.24,7.84-2.16,2.16-4.78,3.24-7.84,3.24s-5.68-1.08-7.84-3.24c-2.16-2.16-3.24-4.78-3.24-7.84Zm32.21-119.44c-6.28,6.14-9.41,13.67-9.41,22.59s3.14,16.49,9.41,22.69c6.27,6.21,13.8,9.31,22.59,9.31s16.32-3.1,22.59-9.31c6.28-6.2,9.41-13.77,9.41-22.69s-3.14-16.49-9.41-22.69c-6.27-6.2-13.8-9.31-22.59-9.31s-16.31,3.14-22.59,9.41Z"/>
    <path class="cls-5" d="m304.96,110.13v-5.23c0-3.07,1.08-5.68,3.24-7.84s4.78-3.24,7.84-3.24,5.68,1.08,7.84,3.24c2.16,2.16,3.24,4.78,3.24,7.84v80.74c0,3.07-1.08,5.68-3.24,7.84-2.16,2.16-4.78,3.24-7.84,3.24s-5.68-1.08-7.84-3.24c-2.16-2.16-3.24-4.78-3.24-7.84v-5.23c-8.78,10.88-20.92,16.31-36.39,16.31-13.95,0-25.8-4.95-35.56-14.85-9.76-9.9-14.64-22.1-14.64-36.6s4.88-26.7,14.64-36.6c9.76-9.9,21.61-14.85,35.56-14.85,15.48,0,27.61,5.44,36.39,16.32Zm-10.04,57.94c6.28-6.27,9.41-13.87,9.41-22.8s-3.14-16.49-9.41-22.69c-6.27-6.2-13.8-9.31-22.59-9.31s-16.32,3.11-22.59,9.31c-6.27,6.21-9.41,13.77-9.41,22.69s3.14,16.49,9.41,22.69c6.27,6.21,13.81,9.31,22.59,9.31s16.31-3.07,22.59-9.2Z"/>
    <path class="cls-5" d="m379.85,104.9v2.09c6.97-8.79,15.55-13.18,25.73-13.18,3.07,0,5.72.21,7.95.63,2.51.56,4.53,1.75,6.07,3.56,1.53,1.81,2.3,3.91,2.3,6.28,0,2.79-.98,5.16-2.93,7.11-1.95,1.95-4.32,2.93-7.11,2.93-.56,0-1.88-.21-3.97-.63-2.23-.42-4.39-.63-6.48-.63-6.27,0-11.44,2.51-15.48,7.53-4.05,5.02-6.07,11.09-6.07,18.2v46.85c0,3.07-1.08,5.68-3.24,7.84-2.16,2.16-4.78,3.24-7.84,3.24s-5.68-1.08-7.84-3.24c-2.16-2.16-3.24-4.78-3.24-7.84v-80.74c0-3.07,1.08-5.68,3.24-7.84,2.16-2.16,4.78-3.24,7.84-3.24s5.68,1.08,7.84,3.24c2.16,2.16,3.24,4.78,3.24,7.84Z"/>
    <path class="cls-5" d="m461.84,45.92v95.59l43.51-44.34c1.95-2.23,4.46-3.35,7.53-3.35,2.79,0,5.19,1.01,7.22,3.03,2.02,2.02,3.03,4.43,3.03,7.22s-1.33,5.51-3.98,8.16l-30.75,30.12,36.39,36.4c2.09,2.37,3.14,4.88,3.14,7.53,0,2.79-1.05,5.23-3.14,7.32-2.09,2.09-4.6,3.14-7.53,3.14-3.21,0-5.72-1.05-7.53-3.14l-47.9-52.08v44.14c0,3.07-1.08,5.68-3.24,7.84-2.16,2.16-4.78,3.24-7.84,3.24s-5.68-1.08-7.84-3.24c-2.16-2.16-3.24-4.78-3.24-7.84V45.92c0-3.07,1.08-5.68,3.24-7.84,2.16-2.16,4.78-3.24,7.84-3.24s5.68,1.08,7.84,3.24c2.16,2.16,3.24,4.78,3.24,7.84Z"/>
  </g>
  <g>
    <path class="cls-6" d="m130.93,219.59c1.09-1.85,2.56-3.3,4.42-4.33,1.86-1.04,3.9-1.56,6.12-1.56,2.54,0,4.79.62,6.77,1.87,1.98,1.25,3.41,3.01,4.3,5.29h-4.7c-.62-1.26-1.47-2.19-2.57-2.81-1.1-.62-2.37-.92-3.8-.92-1.58,0-2.98.35-4.22,1.06-1.23.71-2.2,1.72-2.9,3.05-.7,1.33-1.05,2.87-1.05,4.63s.35,3.3,1.05,4.63c.7,1.33,1.66,2.35,2.9,3.07,1.23.72,2.64,1.08,4.22,1.08,1.44,0,2.71-.31,3.8-.92,1.1-.62,1.95-1.55,2.57-2.81h4.7c-.89,2.28-2.33,4.04-4.3,5.28-1.98,1.23-4.23,1.85-6.77,1.85-2.24,0-4.29-.52-6.14-1.56-1.85-1.04-3.32-2.48-4.4-4.33-1.09-1.85-1.63-3.94-1.63-6.27s.54-4.42,1.63-6.27Z"/>
    <path class="cls-6" d="m163.56,236.5c-1.86-1.04-3.33-2.49-4.42-4.35s-1.63-3.96-1.63-6.29.54-4.42,1.63-6.27,2.56-3.3,4.42-4.33c1.86-1.04,3.9-1.56,6.12-1.56s4.29.52,6.15,1.56c1.86,1.04,3.33,2.48,4.4,4.33,1.07,1.85,1.61,3.94,1.61,6.27s-.54,4.43-1.61,6.29c-1.07,1.86-2.54,3.31-4.4,4.35-1.86,1.04-3.91,1.56-6.15,1.56s-4.26-.52-6.12-1.56Zm10.33-2.91c1.23-.72,2.2-1.75,2.9-3.08.7-1.34,1.05-2.88,1.05-4.64s-.35-3.3-1.05-4.63c-.7-1.33-1.66-2.34-2.9-3.05-1.23-.71-2.64-1.06-4.22-1.06s-2.98.35-4.22,1.06c-1.23.71-2.2,1.72-2.9,3.05-.7,1.33-1.05,2.87-1.05,4.63s.35,3.31,1.05,4.64c.7,1.34,1.66,2.37,2.9,3.08,1.23.72,2.64,1.08,4.22,1.08s2.98-.36,4.22-1.08Z"/>
    <path class="cls-6" d="m212.49,214v23.82h-3.91v-16.31l-7.27,16.31h-2.71l-7.3-16.31v16.31h-3.91v-23.82h4.22l8.36,18.68,8.33-18.68h4.18Z"/>
    <path class="cls-6" d="m244.43,214v23.82h-3.91v-16.31l-7.27,16.31h-2.71l-7.3-16.31v16.31h-3.91v-23.82h4.22l8.36,18.68,8.33-18.68h4.18Z"/>
    <path class="cls-6" d="m255.16,214v15.18c0,1.81.47,3.17,1.42,4.08.95.91,2.27,1.37,3.96,1.37s3.04-.46,3.99-1.37c.95-.91,1.42-2.27,1.42-4.08v-15.18h3.91v15.12c0,1.94-.42,3.59-1.27,4.94-.84,1.35-1.98,2.35-3.39,3.02s-2.98.99-4.7.99-3.27-.33-4.68-.99c-1.4-.66-2.52-1.67-3.34-3.02s-1.23-2.99-1.23-4.94v-15.12h3.91Z"/>
    <path class="cls-6" d="m296.22,237.82h-3.91l-11.76-17.79v17.79h-3.91v-23.86h3.91l11.76,17.75v-17.75h3.91v23.86Z"/>
    <path class="cls-6" d="m306.98,214v23.82h-3.91v-23.82h3.91Z"/>
    <path class="cls-6" d="m329.22,214v3.19h-6.34v20.63h-3.91v-20.63h-6.38v-3.19h16.62Z"/>
    <path class="cls-6" d="m352.53,214l-7.88,15.18v8.64h-3.91v-8.64l-7.92-15.18h4.35l5.52,11.69,5.52-11.69h4.32Z"/>
    <path class="cls-6" d="m371.48,237.22c-1.28-.56-2.28-1.35-3.02-2.38-.73-1.03-1.1-2.23-1.1-3.6h4.18c.09,1.03.5,1.87,1.22,2.54.72.66,1.73.99,3.03.99s2.4-.33,3.15-.98c.75-.65,1.13-1.49,1.13-2.52,0-.8-.23-1.45-.7-1.95s-1.05-.89-1.75-1.16c-.7-.27-1.66-.57-2.9-.89-1.56-.41-2.82-.83-3.79-1.25-.97-.42-1.8-1.08-2.49-1.97s-1.03-2.08-1.03-3.56c0-1.37.34-2.57,1.03-3.6s1.65-1.82,2.88-2.36c1.23-.55,2.66-.82,4.29-.82,2.31,0,4.2.58,5.67,1.73,1.47,1.15,2.29,2.74,2.45,4.75h-4.32c-.07-.87-.48-1.61-1.23-2.23-.75-.62-1.75-.93-2.98-.93-1.12,0-2.03.29-2.74.86-.71.57-1.06,1.4-1.06,2.47,0,.73.22,1.33.67,1.8.44.47,1.01.84,1.7,1.11.68.27,1.62.57,2.81.89,1.58.43,2.86.87,3.86,1.3s1.84,1.1,2.54,2c.7.9,1.05,2.11,1.05,3.62,0,1.21-.33,2.35-.98,3.43-.65,1.07-1.6,1.94-2.84,2.59s-2.71.98-4.4.98c-1.6,0-3.04-.28-4.32-.84Z"/>
    <path class="cls-6" d="m390.69,219.59c1.09-1.85,2.56-3.3,4.42-4.33,1.86-1.04,3.9-1.56,6.12-1.56,2.54,0,4.79.62,6.77,1.87,1.98,1.25,3.41,3.01,4.3,5.29h-4.7c-.62-1.26-1.47-2.19-2.57-2.81-1.1-.62-2.37-.92-3.8-.92-1.58,0-2.98.35-4.22,1.06-1.23.71-2.2,1.72-2.9,3.05-.7,1.33-1.05,2.87-1.05,4.63s.35,3.3,1.05,4.63c.7,1.33,1.66,2.35,2.9,3.07,1.23.72,2.64,1.08,4.22,1.08,1.44,0,2.71-.31,3.8-.92,1.1-.62,1.95-1.55,2.57-2.81h4.7c-.89,2.28-2.33,4.04-4.3,5.28-1.98,1.23-4.23,1.85-6.77,1.85-2.24,0-4.29-.52-6.14-1.56-1.85-1.04-3.32-2.48-4.4-4.33-1.09-1.85-1.63-3.94-1.63-6.27s.54-4.42,1.63-6.27Z"/>
    <path class="cls-6" d="m437.59,214v23.82h-3.91v-10.42h-11.21v10.42h-3.91v-23.82h3.91v10.21h11.21v-10.21h3.91Z"/>
    <path class="cls-6" d="m449.19,236.5c-1.86-1.04-3.33-2.49-4.42-4.35s-1.63-3.96-1.63-6.29.54-4.42,1.63-6.27,2.56-3.3,4.42-4.33c1.86-1.04,3.9-1.56,6.12-1.56s4.29.52,6.15,1.56c1.86,1.04,3.33,2.48,4.4,4.33,1.07,1.85,1.61,3.94,1.61,6.27s-.54,4.43-1.61,6.29c-1.07,1.86-2.54,3.31-4.4,4.35-1.86,1.04-3.91,1.56-6.15,1.56s-4.26-.52-6.12-1.56Zm10.33-2.91c1.23-.72,2.2-1.75,2.9-3.08.7-1.34,1.05-2.88,1.05-4.64s-.35-3.3-1.05-4.63c-.7-1.33-1.66-2.34-2.9-3.05-1.23-.71-2.64-1.06-4.22-1.06s-2.98.35-4.22,1.06c-1.23.71-2.2,1.72-2.9,3.05-.7,1.33-1.05,2.87-1.05,4.63s.35,3.31,1.05,4.64c.7,1.34,1.66,2.37,2.9,3.08,1.23.72,2.64,1.08,4.22,1.08s2.98-.36,4.22-1.08Z"/>
    <path class="cls-6" d="m477.77,236.5c-1.86-1.04-3.33-2.49-4.42-4.35-1.09-1.86-1.63-3.96-1.63-6.29s.54-4.42,1.63-6.27,2.56-3.3,4.42-4.33c1.86-1.04,3.9-1.56,6.12-1.56s4.29.52,6.15,1.56c1.86,1.04,3.33,2.48,4.4,4.33,1.07,1.85,1.61,3.94,1.61,6.27s-.54,4.43-1.61,6.29c-1.07,1.86-2.54,3.31-4.4,4.35-1.86,1.04-3.91,1.56-6.15,1.56s-4.26-.52-6.12-1.56Zm10.33-2.91c1.23-.72,2.2-1.75,2.9-3.08.7-1.34,1.05-2.88,1.05-4.64s-.35-3.3-1.05-4.63c-.7-1.33-1.66-2.34-2.9-3.05-1.23-.71-2.64-1.06-4.22-1.06s-2.98.35-4.22,1.06c-1.23.71-2.2,1.72-2.9,3.05-.7,1.33-1.05,2.87-1.05,4.63s.35,3.31,1.05,4.64c.7,1.34,1.66,2.37,2.9,3.08,1.23.72,2.64,1.08,4.22,1.08s2.98-.36,4.22-1.08Z"/>
    <path class="cls-6" d="m505.52,234.67h8.05v3.15h-11.96v-23.82h3.91v20.67Z"/>
    <path class="cls-6" d="m522.07,237.22c-1.28-.56-2.28-1.35-3.02-2.38s-1.1-2.23-1.1-3.6h4.18c.09,1.03.5,1.87,1.22,2.54.72.66,1.73.99,3.03.99s2.4-.33,3.15-.98c.75-.65,1.13-1.49,1.13-2.52,0-.8-.23-1.45-.7-1.95s-1.05-.89-1.75-1.16c-.7-.27-1.66-.57-2.9-.89-1.56-.41-2.82-.83-3.79-1.25-.97-.42-1.8-1.08-2.49-1.97s-1.03-2.08-1.03-3.56c0-1.37.34-2.57,1.03-3.6s1.65-1.82,2.88-2.36c1.23-.55,2.66-.82,4.29-.82,2.31,0,4.2.58,5.67,1.73,1.47,1.15,2.29,2.74,2.45,4.75h-4.32c-.07-.87-.48-1.61-1.23-2.23-.75-.62-1.75-.93-2.98-.93-1.12,0-2.03.29-2.74.86-.71.57-1.06,1.4-1.06,2.47,0,.73.22,1.33.67,1.8.44.47,1.01.84,1.7,1.11.68.27,1.62.57,2.81.89,1.58.43,2.86.87,3.86,1.3s1.84,1.1,2.54,2c.7.9,1.05,2.11,1.05,3.62,0,1.21-.33,2.35-.98,3.43-.65,1.07-1.6,1.94-2.84,2.59s-2.71.98-4.4.98c-1.6,0-3.04-.28-4.32-.84Z"/>
  </g>
  <g>
    <g>
      <path class="cls-3" d="m542.51,4.92c1.23-.12,2.32.79,2.43,2.01,0,.08.01.17,0,.25h0l2.52,50.23-6.94-49.81h0c-.02-.08-.03-.16-.04-.25-.12-1.23.79-2.32,2.01-2.43h0Zm-47.73,33.91c.51-1.12,1.84-1.61,2.96-1.1.08.03.15.07.22.12h0s44.76,22.94,44.76,22.94l-46.61-18.9h0c-.08-.03-.16-.06-.23-.09-1.12-.51-1.61-1.84-1.1-2.96h0Zm58.74,82.66c-1.23.12-2.32-.79-2.43-2.01,0-.08-.01-.17,0-.25h0l-2.52-50.23,6.94,49.81h0c.02.08.03.16.04.25.12,1.23-.79,2.32-2.01,2.43h0Zm47.73-33.91c-.51,1.12-1.84,1.61-2.96,1.1-.08-.03-.15-.07-.22-.12h0s-44.76-22.94-44.76-22.94l46.61,18.9h0c.08.03.16.06.23.09,1.12.51,1.61,1.84,1.1,2.96h0Zm-5.51-58.29c.71,1.01.48,2.4-.53,3.11-.07.05-.14.09-.21.13h0s-42.24,27.3-42.24,27.3l39.67-30.91c.06-.05.13-.11.19-.16,1.01-.71,2.4-.48,3.11.53h0Z"/>
      <path class="cls-4" d="m554.67,11.48c1.09.14,1.86,1.14,1.72,2.23,0,.07-.02.15-.04.22h0s-7.67,44.14-7.67,44.14l3.75-44.64h0c0-.07,0-.15.02-.22.14-1.09,1.14-1.86,2.23-1.72h0Zm-48.12,20.1c.67-.87,1.91-1.04,2.79-.38.06.05.12.09.17.14h0l34.39,28.71-36.79-25.56h0c-.06-.04-.12-.08-.18-.12-.87-.67-1.04-1.91-.38-2.79h0Zm-6.65,51.72c-.42-1.01.05-2.18,1.07-2.6.07-.03.14-.05.21-.07h0s42.06-15.43,42.06-15.43l-40.53,19.08c-.06.04-.13.07-.2.1-1.01.42-2.18-.06-2.6-1.07h0Zm41.47,31.62c-1.09-.14-1.86-1.14-1.72-2.23,0-.07.02-.15.04-.22h0s7.67-44.14,7.67-44.14l-3.75,44.64h0c0,.07,0,.15-.02.22-.14,1.09-1.14,1.86-2.23,1.72h0Zm48.12-20.1c-.67.87-1.91,1.04-2.79.38-.06-.05-.12-.09-.17-.14h0s-34.39-28.71-34.39-28.71l36.79,25.56c.06.04.12.08.18.12.87.67,1.04,1.91.38,2.79h0Zm6.65-51.72c.42,1.01-.05,2.18-1.07,2.6-.07.03-.14.05-.21.07h0s-42.06,15.43-42.06,15.43l40.53-19.08h0c.06-.04.13-.07.2-.1,1.01-.42,2.18.06,2.6,1.07h0Z"/>
      <path class="cls-2" d="m572.33.17c1.33.51,1.99,2,1.48,3.33-.03.09-.07.18-.12.26h0s-23.25,53.17-23.25,53.17l18.47-55.02h0c.02-.09.05-.18.09-.27.51-1.33,2-1.99,3.33-1.48h0Zm-66.74,10.46c1.11-.89,2.73-.72,3.62.39.06.08.12.15.17.23h0s34.42,46.72,34.42,46.72l-38.41-43.51h0c-.07-.07-.13-.14-.19-.21-.89-1.11-.72-2.73.39-3.62h0Zm-24.31,63.03c-.22-1.41.74-2.72,2.15-2.95.1-.01.19-.02.29-.03h0s57.68-6.45,57.68-6.45l-56.88,11.51h0c-.09.02-.19.04-.28.06-1.41.22-2.73-.74-2.95-2.15h0Zm109.18,42.11c-1.11.89-2.73.72-3.62-.39-.06-.08-.12-.15-.17-.23h0s-34.42-46.72-34.42-46.72l38.41,43.51h0c.07.07.13.14.19.21.89,1.11.72,2.73-.39,3.62h0Zm24.31-63.03c.22,1.41-.74,2.72-2.15,2.95-.1.01-.19.02-.29.03h0s-57.68,6.45-57.68,6.45l56.88-11.51h0c.09-.02.19-.04.28-.06,1.41-.22,2.72.74,2.95,2.15h0Z"/>
    </g>
    <g class="cls-7">
      <path class="cls-1" d="m525.95,8.08c1.15-.45,2.44.12,2.89,1.27.03.08.06.16.08.24h0l16.21,47.61-20.34-46h0c-.04-.07-.07-.15-.1-.23-.45-1.15.12-2.44,1.27-2.89h0Zm-36.59,45.71c.19-1.22,1.33-2.06,2.54-1.87.08.01.16.03.24.05h0s49.34,9.77,49.34,9.77l-50.01-5.38h0c-.08,0-.16-.01-.25-.02-1.22-.19-2.06-1.33-1.87-2.54h0Zm79.17,63.37c-1.15.45-2.44-.12-2.89-1.27-.03-.08-.06-.16-.08-.24h0l-16.21-47.61,20.34,46h0c.04.07.07.15.1.23.45,1.15-.12,2.44-1.27,2.89h0Zm36.59-45.71c-.19,1.22-1.33,2.06-2.54,1.87-.08-.01-.16-.03-.24-.05h0s-49.34-9.77-49.34-9.77l50.01,5.38h0c.08,0,.16.01.25.02,1.22.19,2.06,1.33,1.87,2.55h0Zm-21.29-54.54c.96.77,1.12,2.18.35,3.14-.05.07-.11.13-.17.19h0s-33.13,37.84-33.13,37.84l29.66-40.62c.04-.07.09-.14.14-.2.77-.96,2.18-1.12,3.14-.35h0Z"/>
    </g>
  </g>
</svg>